<?xml version="1.0" encoding="utf-8"?>
<!-- Generator: Adobe Illustrator 15.1.0, SVG Export Plug-In . SVG Version: 6.00 Build 0)  -->
<svg version="1.2" baseProfile="tiny" id="Layer_1" xmlns="http://www.w3.org/2000/svg" xmlns:xlink="http://www.w3.org/1999/xlink"
	 x="0px" y="0px" width="114.83px" height="65.171px" viewBox="0 0 114.83 65.171" xml:space="preserve">
<path fill="#FFFFFF" d="M82.584,34.826l-5.533,14.313h-7.544L88.723,0h6.914l19.193,49.139h-7.794l-5.396-14.313H82.584z
	 M99.076,27.909L92.162,9.247l-7.049,18.662H99.076z"/>
<path fill="#B42E34" d="M42.319,49.099h19.959V27.83H42.319V49.099z M42.319,20.832h19.959L62.28,0.003H42.319V20.832z
	 M27.623,0.003v49.096h7.542V0.003H27.623z M69.435,0.003v49.096h7.283V0.003H69.435z"/>
<path fill="#FFFFFF" d="M7.443,49.139H0.287V0H14.51c5.889,0,10.385,1.362,13.486,4.087c3.103,2.725,4.654,6.664,4.652,11.821
	c0.002,4.007-1.296,7.356-3.892,10.047c-2.593,2.691-5.935,4.137-10.022,4.339l13.914,18.845h-8.907L7.443,26.336V49.139z
	 M7.443,25.523h3.652c4.934,0,8.607-0.798,11.019-2.399c2.411-1.599,3.616-4.031,3.617-7.298c0-3.176-1.037-5.508-3.11-6.996
	c-2.073-1.486-5.353-2.231-9.836-2.231H7.443V25.523z"/>
<g>
	<path fill="#FFFFFF" d="M5.593,56.984l3.587,8.08H7.017L6.35,63.469H2.735l-0.602,1.596H0l3.256-8.08H5.593z M5.755,62.059
		l-1.302-3.143l-1.186,3.143H5.755z"/>
	<path fill="#FFFFFF" d="M13.843,56.984h3.61c0.783,0,1.419,0.227,1.908,0.68c0.49,0.453,0.734,1.002,0.734,1.646
		c0.001,0.892-0.462,1.551-1.387,1.979c0.408,0.181,0.795,0.677,1.159,1.487c0.364,0.809,0.717,1.572,1.057,2.289h-2.216
		c-0.131-0.266-0.359-0.772-0.686-1.521c-0.326-0.746-0.605-1.228-0.839-1.44c-0.233-0.21-0.482-0.317-0.749-0.317h-0.579
		l0.001,3.279h-2.013L13.843,56.984z M15.856,58.465v1.84h1.064c0.34,0,0.608-0.08,0.807-0.24s0.298-0.389,0.298-0.685
		c0-0.61-0.384-0.915-1.15-0.915H15.856z"/>
	<path fill="#FFFFFF" d="M33.127,62.604v1.764c-1.011,0.535-2.068,0.804-3.175,0.804c-1.435,0-2.577-0.396-3.428-1.188
		c-0.852-0.793-1.276-1.77-1.276-2.931c0-1.159,0.448-2.145,1.346-2.955c0.896-0.809,2.066-1.216,3.513-1.216
		c1.153,0,2.13,0.239,2.927,0.713v1.799c-0.979-0.551-1.906-0.828-2.782-0.828c-0.859,0-1.563,0.232-2.107,0.691
		c-0.547,0.462-0.818,1.049-0.818,1.762c0,0.717,0.269,1.31,0.808,1.776c0.537,0.466,1.227,0.7,2.067,0.7
		c0.416,0,0.817-0.055,1.203-0.166C31.789,63.22,32.363,62.977,33.127,62.604z"/>
	<path fill="#FFFFFF" d="M46.519,56.984l0.001,8.08h-2.014v-3.268H40.48v3.268h-2.013l-0.001-8.08h2.013v3.245h4.026v-3.245H46.519z
		"/>
	<path fill="#FFFFFF" d="M54.126,56.984l0.001,8.08h-2.014v-8.08H54.126z"/>
	<path fill="#FFFFFF" d="M67.007,56.984v1.48H64.08l0.001,6.6h-2.014l-0.001-6.6h-2.926v-1.48H67.007z"/>
	<path fill="#FFFFFF" d="M77.943,63.584v1.48h-5.958l-0.002-8.08h5.877v1.48h-3.863v1.695h3.685v1.48h-3.684v1.943H77.943z"/>
	<path fill="#FFFFFF" d="M90.754,62.604v1.764c-1.011,0.535-2.07,0.804-3.178,0.804c-1.433,0-2.575-0.396-3.426-1.188
		s-1.275-1.77-1.275-2.931c0-1.159,0.447-2.145,1.344-2.955c0.896-0.809,2.068-1.216,3.514-1.216c1.153,0,2.129,0.239,2.928,0.713
		v1.799c-0.979-0.551-1.906-0.828-2.781-0.828c-0.861,0-1.563,0.232-2.109,0.691c-0.545,0.462-0.818,1.049-0.818,1.762
		c0,0.717,0.269,1.31,0.807,1.776c0.539,0.466,1.228,0.7,2.068,0.7c0.417,0,0.818-0.055,1.203-0.166
		C89.415,63.22,89.989,62.977,90.754,62.604z"/>
	<path fill="#FFFFFF" d="M103.364,56.984v1.48h-2.928l0.001,6.6h-2.014v-6.6h-2.927l-0.001-1.48H103.364z"/>
	<path fill="#FFFFFF" d="M113.802,57.508v1.578c-1.072-0.482-1.925-0.724-2.562-0.724c-0.363,0-0.65,0.062-0.865,0.183
		c-0.214,0.121-0.321,0.283-0.321,0.483c0,0.153,0.079,0.3,0.231,0.439c0.155,0.14,0.529,0.318,1.127,0.537
		c0.598,0.222,1.077,0.425,1.436,0.614c0.358,0.188,0.668,0.455,0.929,0.799c0.26,0.342,0.391,0.776,0.391,1.3
		c0,0.749-0.284,1.345-0.853,1.788c-0.569,0.443-1.318,0.665-2.247,0.665c-1.004,0-1.976-0.26-2.916-0.78v-1.741
		c0.54,0.362,1.018,0.626,1.434,0.792c0.417,0.166,0.859,0.248,1.326,0.248c0.79,0,1.185-0.248,1.185-0.745
		c0-0.169-0.079-0.329-0.236-0.479c-0.158-0.151-0.54-0.334-1.142-0.551c-0.604-0.216-1.082-0.416-1.436-0.602
		c-0.354-0.184-0.658-0.447-0.914-0.793c-0.257-0.342-0.385-0.783-0.385-1.318c0-0.693,0.279-1.254,0.838-1.68
		c0.561-0.427,1.308-0.641,2.244-0.641C111.93,56.881,112.843,57.09,113.802,57.508z"/>
</g>
</svg>
