<?xml version="1.0" encoding="utf-8"?>
<!-- Generator: Adobe Illustrator 15.1.0, SVG Export Plug-In . SVG Version: 6.00 Build 0)  -->
<svg version="1.2" baseProfile="tiny" id="Layer_1" xmlns="http://www.w3.org/2000/svg" xmlns:xlink="http://www.w3.org/1999/xlink"
	 x="0px" y="0px" width="323.046px" height="8.078px" viewBox="0 0 323.046 8.078" xml:space="preserve">
<path fill="#B42E34" d="M0,0.113h3.505c0.761,0,1.38,0.22,1.855,0.658c0.476,0.441,0.715,0.971,0.715,1.596
	c0,0.865-0.453,1.503-1.359,1.918C5.12,4.467,5.5,4.952,5.853,5.739C6.21,6.525,6.554,7.268,6.885,7.965H4.743
	C4.614,7.706,4.389,7.213,4.067,6.486C3.748,5.758,3.475,5.29,3.249,5.082c-0.229-0.208-0.471-0.312-0.73-0.312H1.957v3.194H0V0.113
	z M1.957,1.553v1.776h1.026c0.326,0,0.586-0.077,0.778-0.232C3.953,2.943,4.05,2.722,4.05,2.435c0-0.588-0.371-0.882-1.11-0.882
	H1.957z"/>
<path fill="#B42E34" d="M13.55,0.112l3.476,7.854h-2.107l-0.647-1.554h-3.518l-0.586,1.554H8.093l3.158-7.854H13.55z M13.697,5.041
	l-1.272-3.049l-1.153,3.049H13.697z"/>
<polygon fill="#B42E34" points="20.033,7.965 20.033,4.327 16.929,0.112 19.296,0.112 21.013,2.587 22.729,0.112 25.095,0.112 
	21.99,4.311 21.99,7.965 "/>
<polygon fill="#B42E34" points="31.354,3.032 33.88,0.113 35.596,0.113 35.596,7.966 33.639,7.966 33.639,3.072 31.497,5.535 
	31.214,5.535 29.093,3.072 29.093,7.966 27.136,7.966 27.136,0.113 28.853,0.113 "/>
<path fill="#B42E34" d="M42.626,0c1.338,0,2.424,0.405,3.251,1.214c0.829,0.81,1.243,1.752,1.243,2.828
	c0,1.09-0.418,2.036-1.26,2.834c-0.838,0.802-1.918,1.202-3.234,1.202c-1.33,0-2.414-0.4-3.251-1.196
	c-0.835-0.797-1.255-1.743-1.255-2.84c0-1.08,0.416-2.021,1.246-2.83C40.198,0.405,41.284,0,42.626,0 M42.626,6.436
	c0.74,0,1.337-0.222,1.791-0.662c0.452-0.44,0.678-1.019,0.678-1.734c0-0.72-0.226-1.3-0.678-1.739
	c-0.454-0.437-1.051-0.658-1.791-0.658c-0.744,0-1.344,0.221-1.799,0.658c-0.453,0.439-0.682,1.019-0.682,1.739
	c0,0.716,0.229,1.294,0.682,1.734C41.282,6.214,41.882,6.436,42.626,6.436"/>
<polygon fill="#B42E34" points="57.633,0.113 57.633,7.966 55.973,7.966 51.671,2.935 51.671,7.966 49.714,7.966 49.714,0.113 
	51.513,0.113 55.676,4.913 55.676,0.113 "/>
<path fill="#B42E34" d="M60.591,0.113h3.465c1.339,0,2.396,0.365,3.175,1.099c0.778,0.733,1.167,1.679,1.167,2.84
	c0,1.218-0.395,2.176-1.184,2.87c-0.789,0.695-1.914,1.043-3.377,1.043h-3.246V0.113z M62.548,1.553v4.972h1.271
	c0.827,0,1.459-0.227,1.897-0.684c0.437-0.455,0.656-1.055,0.656-1.8c0-0.771-0.222-1.38-0.665-1.824
	c-0.442-0.443-1.08-0.665-1.91-0.665H62.548z"/>
<polygon fill="#B42E34" points="83.139,0.113 83.139,7.966 81.181,7.966 81.181,4.793 77.289,4.793 77.289,7.966 75.331,7.966 
	75.331,0.113 77.289,0.113 77.289,3.263 81.181,3.263 81.181,0.113 "/>
<path fill="#B42E34" d="M90.683,0.112l3.475,7.854h-2.106l-0.647-1.554h-3.519l-0.587,1.554h-2.074l3.16-7.854H90.683z M90.83,5.041
	l-1.275-3.049l-1.15,3.049H90.83z"/>
<path fill="#B42E34" d="M96.227,0.113h3.506c0.761,0,1.38,0.22,1.855,0.658c0.475,0.441,0.714,0.971,0.714,1.596
	c0,0.865-0.453,1.503-1.358,1.918c0.403,0.182,0.782,0.667,1.138,1.454c0.355,0.786,0.698,1.528,1.03,2.226h-2.142
	c-0.13-0.259-0.354-0.752-0.675-1.479c-0.321-0.729-0.594-1.196-0.82-1.404c-0.229-0.208-0.47-0.312-0.729-0.312h-0.562v3.194
	h-1.958V0.113z M98.185,1.553v1.776h1.026c0.326,0,0.586-0.077,0.777-0.232c0.19-0.154,0.288-0.375,0.288-0.662
	c0-0.588-0.371-0.882-1.111-0.882H98.185z"/>
<path fill="#B42E34" d="M105.175,0.113h3.505c0.762,0,1.381,0.22,1.855,0.658c0.476,0.441,0.715,0.971,0.715,1.596
	c0,0.865-0.454,1.503-1.358,1.918c0.403,0.182,0.783,0.667,1.137,1.454c0.356,0.786,0.699,1.528,1.031,2.226h-2.143
	c-0.129-0.259-0.354-0.752-0.675-1.479c-0.319-0.729-0.593-1.196-0.819-1.404c-0.229-0.208-0.47-0.312-0.729-0.312h-0.562v3.194
	h-1.957V0.113z M107.132,1.553v1.776h1.026c0.327,0,0.587-0.077,0.778-0.232c0.191-0.154,0.288-0.375,0.288-0.662
	c0-0.588-0.371-0.882-1.11-0.882H107.132z"/>
<rect x="114.168" y="0.112" fill="#B42E34" width="1.957" height="7.853"/>
<path fill="#B42E34" d="M124.398,0.605v1.533c-1.037-0.466-1.862-0.697-2.478-0.697c-0.35,0-0.628,0.06-0.834,0.177
	c-0.209,0.119-0.311,0.276-0.311,0.471c0,0.152,0.072,0.295,0.218,0.431c0.146,0.135,0.508,0.311,1.09,0.523
	c0.58,0.215,1.043,0.415,1.394,0.598c0.348,0.185,0.647,0.443,0.899,0.778c0.255,0.334,0.381,0.757,0.381,1.269
	c0,0.729-0.276,1.31-0.829,1.741c-0.554,0.433-1.281,0.649-2.186,0.649c-0.975,0-1.92-0.253-2.835-0.76V5.626
	c0.522,0.351,0.986,0.608,1.391,0.769c0.403,0.162,0.832,0.243,1.286,0.243c0.766,0,1.148-0.239,1.148-0.722
	c0-0.165-0.076-0.319-0.227-0.464c-0.151-0.147-0.52-0.327-1.103-0.541c-0.585-0.217-1.049-0.414-1.392-0.595
	c-0.344-0.18-0.64-0.438-0.888-0.772c-0.25-0.334-0.374-0.763-0.374-1.285c0-0.675,0.271-1.221,0.813-1.636
	c0.544-0.415,1.269-0.622,2.179-0.622C122.581,0.001,123.466,0.202,124.398,0.605"/>
<path fill="#B42E34" d="M137.356,3.893h1.688c-0.447,1.033-0.974,1.816-1.58,2.348l1.58,1.725h-2.388l-0.573-0.623
	c-0.763,0.49-1.586,0.736-2.472,0.736c-0.712,0-1.307-0.197-1.778-0.595c-0.473-0.396-0.709-0.889-0.709-1.478
	c0-0.887,0.59-1.628,1.771-2.227c-0.476-0.654-0.714-1.236-0.714-1.749c0-0.583,0.227-1.067,0.681-1.451
	C133.315,0.193,133.892,0,134.589,0c0.667,0,1.213,0.176,1.637,0.527c0.424,0.352,0.636,0.8,0.636,1.345
	c0,0.768-0.487,1.441-1.464,2.02l1.07,1.23C136.803,4.787,137.099,4.376,137.356,3.893 M135.169,6.33l-1.396-1.538
	c-0.536,0.346-0.803,0.698-0.803,1.058c0,0.251,0.096,0.467,0.291,0.649s0.428,0.272,0.699,0.272
	C134.337,6.772,134.741,6.627,135.169,6.33 M134.543,2.959c0.525-0.305,0.789-0.637,0.789-0.994c0-0.191-0.069-0.349-0.205-0.475
	c-0.136-0.123-0.312-0.186-0.526-0.186c-0.212,0-0.387,0.058-0.525,0.173c-0.137,0.114-0.206,0.258-0.206,0.432
	C133.869,2.21,134.093,2.561,134.543,2.959"/>
<path fill="#B42E34" d="M149.167,0.112l3.476,7.854h-2.105l-0.649-1.554h-3.517l-0.587,1.554h-2.074l3.16-7.854H149.167z
	 M149.313,5.041l-1.272-3.049l-1.151,3.049H149.313z"/>
<path fill="#B42E34" d="M159.999,0.605v1.533c-1.036-0.466-1.862-0.697-2.477-0.697c-0.351,0-0.629,0.06-0.837,0.177
	c-0.206,0.119-0.31,0.276-0.31,0.471c0,0.152,0.073,0.295,0.219,0.431c0.146,0.135,0.508,0.311,1.09,0.523
	c0.58,0.215,1.043,0.415,1.393,0.598c0.35,0.185,0.648,0.443,0.9,0.778c0.254,0.334,0.381,0.757,0.381,1.269
	c0,0.729-0.276,1.31-0.83,1.741c-0.552,0.433-1.28,0.649-2.186,0.649c-0.974,0-1.919-0.253-2.834-0.76V5.626
	c0.523,0.351,0.987,0.608,1.391,0.769c0.403,0.162,0.832,0.243,1.285,0.243c0.767,0,1.148-0.239,1.148-0.722
	c0-0.165-0.076-0.319-0.227-0.464c-0.149-0.147-0.519-0.327-1.102-0.541c-0.585-0.217-1.049-0.414-1.392-0.595
	c-0.343-0.18-0.64-0.438-0.888-0.772c-0.249-0.334-0.374-0.763-0.374-1.285c0-0.675,0.271-1.221,0.814-1.636
	c0.542-0.415,1.268-0.622,2.177-0.622C158.183,0.001,159.065,0.202,159.999,0.605"/>
<path fill="#B42E34" d="M168.108,0.605v1.533c-1.036-0.466-1.861-0.697-2.477-0.697c-0.351,0-0.627,0.06-0.837,0.177
	c-0.206,0.119-0.31,0.276-0.31,0.471c0,0.152,0.074,0.295,0.219,0.431c0.146,0.135,0.51,0.311,1.09,0.523
	c0.581,0.215,1.045,0.415,1.393,0.598c0.35,0.185,0.65,0.443,0.904,0.778c0.252,0.334,0.378,0.757,0.378,1.269
	c0,0.729-0.276,1.31-0.829,1.741c-0.554,0.433-1.282,0.649-2.186,0.649c-0.976,0-1.92-0.253-2.835-0.76V5.626
	c0.522,0.351,0.986,0.608,1.39,0.769c0.404,0.162,0.832,0.243,1.285,0.243c0.767,0,1.15-0.239,1.15-0.722
	c0-0.165-0.075-0.319-0.229-0.464c-0.149-0.147-0.516-0.327-1.101-0.541c-0.586-0.217-1.048-0.414-1.392-0.595
	c-0.344-0.18-0.64-0.438-0.889-0.772s-0.374-0.763-0.374-1.285c0-0.675,0.271-1.221,0.814-1.636
	c0.542-0.415,1.268-0.622,2.179-0.622C166.292,0.001,167.178,0.202,168.108,0.605"/>
<path fill="#B42E34" d="M175.078,0c1.339,0,2.421,0.405,3.251,1.214c0.828,0.81,1.243,1.752,1.243,2.828
	c0,1.09-0.421,2.036-1.261,2.834c-0.84,0.802-1.918,1.202-3.233,1.202c-1.332,0-2.416-0.4-3.252-1.196
	c-0.837-0.797-1.254-1.743-1.254-2.84c0-1.08,0.415-2.021,1.246-2.83C172.647,0.405,173.735,0,175.078,0 M175.078,6.436
	c0.739,0,1.337-0.222,1.79-0.662s0.68-1.019,0.68-1.734c0-0.72-0.227-1.3-0.68-1.739c-0.453-0.437-1.051-0.658-1.79-0.658
	c-0.745,0-1.345,0.221-1.8,0.658c-0.455,0.439-0.681,1.019-0.681,1.739c0,0.716,0.226,1.294,0.681,1.734
	S174.333,6.436,175.078,6.436"/>
<path fill="#B42E34" d="M189.476,5.557v1.731c-0.984,0.526-2.014,0.79-3.091,0.79c-1.398,0-2.511-0.387-3.339-1.159
	c-0.828-0.771-1.242-1.724-1.242-2.855c0-1.132,0.436-2.092,1.309-2.88C183.987,0.394,185.126,0,186.536,0
	c1.122,0,2.072,0.231,2.851,0.695v1.758c-0.954-0.541-1.856-0.811-2.709-0.811c-0.837,0-1.521,0.225-2.054,0.673
	c-0.529,0.447-0.795,1.018-0.795,1.713c0,0.697,0.261,1.272,0.785,1.726c0.523,0.453,1.195,0.682,2.012,0.682
	c0.406,0,0.796-0.055,1.173-0.164C188.173,6.164,188.733,5.926,189.476,5.557"/>
<rect x="192.243" y="0.112" fill="#B42E34" width="1.957" height="7.853"/>
<path fill="#B42E34" d="M201.788,0.112l3.476,7.854h-2.106l-0.647-1.554h-3.519l-0.587,1.554h-2.074l3.161-7.854H201.788z
	 M201.936,5.041l-1.274-3.049l-1.151,3.049H201.936z"/>
<polygon fill="#B42E34" points="213.035,0.113 213.035,1.553 210.179,1.553 210.179,7.966 208.22,7.966 208.22,1.553 205.386,1.553 
	205.386,0.113 "/>
<polygon fill="#B42E34" points="221.191,6.525 221.191,7.965 215.386,7.965 215.386,0.113 221.124,0.113 221.124,1.553 
	217.345,1.553 217.345,3.195 220.944,3.195 220.944,4.635 217.345,4.635 217.345,6.525 "/>
<path fill="#B42E34" d="M229.138,0.605v1.533c-1.035-0.466-1.861-0.697-2.477-0.697c-0.35,0-0.63,0.06-0.837,0.177
	c-0.206,0.119-0.309,0.276-0.309,0.471c0,0.152,0.071,0.295,0.218,0.431c0.146,0.135,0.508,0.311,1.09,0.523
	c0.582,0.215,1.045,0.415,1.394,0.598c0.349,0.185,0.648,0.443,0.901,0.778c0.252,0.334,0.38,0.757,0.38,1.269
	c0,0.729-0.276,1.31-0.83,1.741c-0.553,0.433-1.282,0.649-2.185,0.649c-0.976,0-1.922-0.253-2.836-0.76V5.626
	c0.524,0.351,0.988,0.608,1.391,0.769c0.405,0.162,0.832,0.243,1.285,0.243c0.767,0,1.149-0.239,1.149-0.722
	c0-0.165-0.075-0.319-0.226-0.464c-0.15-0.147-0.52-0.327-1.104-0.541c-0.584-0.217-1.049-0.414-1.392-0.595
	c-0.343-0.18-0.638-0.438-0.888-0.772c-0.249-0.334-0.373-0.763-0.373-1.285c0-0.675,0.271-1.221,0.814-1.636
	c0.542-0.415,1.268-0.622,2.178-0.622C227.321,0.001,228.206,0.202,229.138,0.605"/>
<path fill="#FFFFFF" d="M239.763,0.112l3.475,7.854h-2.105l-0.647-1.554h-3.52l-0.586,1.554h-2.074l3.159-7.854H239.763z
	 M239.91,5.041l-1.274-3.049l-1.151,3.049H239.91z"/>
<path fill="#FFFFFF" d="M245.307,0.113h3.506c0.762,0,1.378,0.22,1.855,0.658c0.476,0.441,0.714,0.971,0.714,1.596
	c0,0.865-0.453,1.503-1.357,1.918c0.403,0.182,0.781,0.667,1.137,1.454c0.356,0.786,0.699,1.528,1.03,2.226h-2.143
	c-0.128-0.259-0.353-0.752-0.674-1.479c-0.319-0.729-0.593-1.196-0.82-1.404s-0.47-0.312-0.729-0.312h-0.562v3.194h-1.957V0.113z
	 M247.264,1.553v1.776h1.026c0.327,0,0.588-0.077,0.779-0.232c0.191-0.154,0.287-0.375,0.287-0.662c0-0.588-0.37-0.882-1.109-0.882
	H247.264z"/>
<path fill="#FFFFFF" d="M261.567,5.557v1.731c-0.984,0.526-2.015,0.79-3.094,0.79c-1.396,0-2.508-0.387-3.336-1.159
	c-0.829-0.771-1.242-1.724-1.242-2.855c0-1.132,0.436-2.092,1.309-2.88C256.078,0.394,257.218,0,258.627,0
	c1.123,0,2.073,0.231,2.852,0.695v1.758c-0.954-0.541-1.856-0.811-2.71-0.811c-0.838,0-1.521,0.225-2.053,0.673
	c-0.531,0.447-0.796,1.018-0.796,1.713c0,0.697,0.262,1.272,0.785,1.726c0.522,0.453,1.195,0.682,2.013,0.682
	c0.406,0,0.795-0.055,1.172-0.164C260.265,6.164,260.824,5.926,261.567,5.557"/>
<polygon fill="#FFFFFF" points="272.097,0.113 272.097,7.966 270.139,7.966 270.139,4.793 266.247,4.793 266.247,7.966 
	264.288,7.966 264.288,0.113 266.247,0.113 266.247,3.263 270.139,3.263 270.139,0.113 "/>
<rect x="275.081" y="0.112" fill="#FFFFFF" width="1.959" height="7.853"/>
<polygon fill="#FFFFFF" points="287.112,0.113 287.112,1.553 284.255,1.553 284.255,7.966 282.298,7.966 282.298,1.553 
	279.462,1.553 279.462,0.113 "/>
<polygon fill="#FFFFFF" points="295.267,6.525 295.267,7.965 289.463,7.965 289.463,0.113 295.2,0.113 295.2,1.553 291.42,1.553 
	291.42,3.195 295.02,3.195 295.02,4.635 291.42,4.635 291.42,6.525 "/>
<path fill="#FFFFFF" d="M305.241,5.557v1.731c-0.984,0.526-2.016,0.79-3.094,0.79c-1.397,0-2.51-0.387-3.338-1.159
	c-0.828-0.771-1.242-1.724-1.242-2.855c0-1.132,0.436-2.092,1.311-2.88C299.751,0.394,300.89,0,302.3,0
	c1.122,0,2.072,0.231,2.851,0.695v1.758c-0.954-0.541-1.856-0.811-2.708-0.811c-0.839,0-1.522,0.225-2.053,0.673
	c-0.532,0.447-0.797,1.018-0.797,1.713c0,0.697,0.262,1.272,0.785,1.726c0.522,0.453,1.195,0.682,2.012,0.682
	c0.406,0,0.796-0.055,1.172-0.164C303.937,6.164,304.497,5.926,305.241,5.557"/>
<polygon fill="#FFFFFF" points="315.05,0.113 315.05,1.553 312.191,1.553 312.191,7.966 310.234,7.966 310.234,1.553 307.399,1.553 
	307.399,0.113 "/>
<path fill="#FFFFFF" d="M322.687,0.605v1.533c-1.037-0.466-1.862-0.697-2.477-0.697c-0.35,0-0.629,0.06-0.837,0.177
	c-0.206,0.119-0.309,0.276-0.309,0.471c0,0.152,0.072,0.295,0.218,0.431c0.145,0.135,0.508,0.311,1.09,0.523
	c0.58,0.215,1.043,0.415,1.394,0.598c0.347,0.185,0.647,0.443,0.901,0.778c0.252,0.334,0.379,0.757,0.379,1.269
	c0,0.729-0.276,1.31-0.829,1.741c-0.555,0.433-1.282,0.649-2.186,0.649c-0.977,0-1.921-0.253-2.835-0.76V5.626
	c0.522,0.351,0.986,0.608,1.391,0.769c0.403,0.162,0.83,0.243,1.283,0.243c0.77,0,1.151-0.239,1.151-0.722
	c0-0.165-0.076-0.319-0.228-0.464c-0.15-0.147-0.518-0.327-1.102-0.541c-0.585-0.217-1.049-0.414-1.391-0.595
	c-0.344-0.18-0.641-0.438-0.889-0.772c-0.251-0.334-0.374-0.763-0.374-1.285c0-0.675,0.271-1.221,0.813-1.636
	c0.544-0.415,1.27-0.622,2.179-0.622C320.869,0.001,321.753,0.202,322.687,0.605"/>
</svg>
