<?xml version="1.0" encoding="UTF-8" standalone="no"?>
<!-- Created with Inkscape (http://www.inkscape.org/) -->

<svg
   xmlns:dc="http://purl.org/dc/elements/1.1/"
   xmlns:cc="http://creativecommons.org/ns#"
   xmlns:rdf="http://www.w3.org/1999/02/22-rdf-syntax-ns#"
   xmlns:svg="http://www.w3.org/2000/svg"
   xmlns="http://www.w3.org/2000/svg"
   xmlns:sodipodi="http://sodipodi.sourceforge.net/DTD/sodipodi-0.dtd"
   xmlns:inkscape="http://www.inkscape.org/namespaces/inkscape"
   version="1.1"
   width="94.124695"
   height="94.713638"
   id="svg3098"
   inkscape:version="0.48.3.1 r9886"
   sodipodi:docname="lime.svg">
  <sodipodi:namedview
     pagecolor="#ffffff"
     bordercolor="#666666"
     borderopacity="1"
     objecttolerance="10"
     gridtolerance="10"
     guidetolerance="10"
     inkscape:pageopacity="0"
     inkscape:pageshadow="2"
     inkscape:window-width="1231"
     inkscape:window-height="1000"
     id="namedview3131"
     showgrid="false"
     inkscape:zoom="9.101118"
     inkscape:cx="47.062347"
     inkscape:cy="47.356819"
     inkscape:window-x="49"
     inkscape:window-y="24"
     inkscape:window-maximized="1"
     inkscape:current-layer="svg3098" />
  <metadata
     id="metadata3104">
    <rdf:RDF>
      <cc:Work
         rdf:about="">
        <dc:format>image/svg+xml</dc:format>
        <dc:type
           rdf:resource="http://purl.org/dc/dcmitype/StillImage" />
        <dc:title />
      </cc:Work>
    </rdf:RDF>
  </metadata>
  <defs
     id="defs3102" />
  <path
     d="m 9.3086711,73.699799 -6.46815,-14.38076 c 0,0 -1.21279,-3.424 -1.75181,-6.57407 -0.53899998,-3.15008 -0.94325998,-9.45022 -0.40424998,-12.46335 0.53900998,-3.01311 -0.13475,-5.47839 1.48228998,-9.58718 1.61703,-4.10879 7.41143,-12.32637 7.41143,-12.32637 0,0 3.2340699,-3.42399 8.3546999,-7.39582 5.12063,-3.9718399 11.8583,-8.6284699 24.39035,-9.8611099 12.53206,-1.23262997 17.78744,1.91744 17.78744,1.91744 0,0 7.68094,1.23264 13.74483,7.2588599 6.0639,6.02624 9.70225,7.39584 12.80158,14.38078 3.09931,6.98494 4.5816,9.99806 5.12061,15.88733 0.53902,5.88927 0.94328,11.36766 -0.94326,16.70909 -1.88656,5.34143 -5.25538,13.55901 -7.95045,16.02429 -2.69507,2.46527 -8.75897,10.81982 -13.34058,12.18941 -4.58161,1.3696 -9.02847,6.43711 -14.95762,6.02623 -5.92915,-0.41088 -6.73766,1.09568 -17.65269,-0.54784 C 26.018081,89.313219 9.3086711,73.699799 9.3086711,73.699799 z"
     id="path4515"
     style="fill:#f6f782;fill-opacity:1;stroke:none" />
  <g
     id="pulp">
    <path
       style="fill:#e1ff6a;fill-opacity:1;stroke:#464214;stroke-width:0.15146219999999999px;stroke-linecap:butt;stroke-linejoin:miter;stroke-opacity:1"
       id="path3110"
       d="m 12.464221,39.979619 c 1.24273,0.44305 6.54524,0.48808 23.14584,2.95361 11.09602,1.64799 4.52366,-3.54735 0.35072,-6.89457 -1.71717,-1.37738 -5.1663,-4.07207 -5.1663,-4.07207 0,0 -2.79615,-3.06297 -7.14569,-7.05033 -4.34956,-3.98737 -7.76707,-5.90721 -11.6506,-0.59073 -3.8835199,5.31649 -3.5728399,4.57809 -4.3495399,7.97473 -0.77671,3.39664 -0.15535,7.23632 4.8155699,7.67936 z" />
    <path
       style="fill:#e1ff6a;fill-opacity:1;stroke:#464214;stroke-width:0.15534118999999999px;stroke-linecap:butt;stroke-linejoin:miter;stroke-opacity:1"
       id="path3112"
       d="m 23.648791,23.604739 c 16.00014,13.82536 16.77684,16.46617 19.41765,16.46617 2.64079,0 2.17477,-2.95149 0.93204,-5.59229 -1.24273,-2.6408 -5.12626,-18.95163 -5.43695,-21.1264 -0.31067,-2.17478 -2.17476,-7.7670599 -7.45636,-5.5922799 -5.2816,2.17478 -3.88353,0.93204 -7.76707,4.5048899 -5.96222,5.48525 -4.03887,8.85444 0.31069,11.33991 z" />
    <path
       style="fill:#e1ff6a;fill-opacity:1;stroke:#464214;stroke-width:0.15534118999999999px;stroke-linecap:butt;stroke-linejoin:miter;stroke-opacity:1"
       id="path3114"
       d="m 39.648931,12.730849 c 4.97092,20.3497 5.90297,34.33041 11.02923,22.67981 5.12625,-11.65058 6.52432,-20.97105 6.99035,-22.99049 0.46601,-2.01944 1.55341,-5.2815999 -4.81559,-6.3689799 -6.36898,-1.0874 -1.86409,-0.77671 -8.54376,-0.93206 -8.78505,-0.20429 -5.2816,5.9029699 -4.66023,7.6117199 z" />
    <path
       style="fill:#e1ff6a;fill-opacity:1;stroke:#464214;stroke-width:0.15534118999999999px;stroke-linecap:butt;stroke-linejoin:miter;stroke-opacity:1"
       id="path3116"
       d="m 15.881721,60.109909 c 21.28175,-10.09717 33.39836,-14.60206 21.43709,-15.37877 -11.96127,-0.77671 -22.05844,-2.17478 -22.05844,-2.17478 0,0 -8.5437799,-2.95148 -9.4758199,5.2816 -0.93205,8.23309 3.88353,11.02922 3.88353,11.02922 0,0 3.2621699,2.48547 6.2136399,1.24273 z" />
    <path
       style="fill:#e1ff6a;fill-opacity:1;stroke:#464214;stroke-width:0.15534118999999999px;stroke-linecap:butt;stroke-linejoin:miter;stroke-opacity:1"
       id="path3118"
       d="m 18.833221,59.954569 c 0,0 12.58262,-6.83501 17.3982,-8.69911 4.81558,-1.86409 10.5632,-5.12625 5.90296,3.10684 -4.66023,8.23307 -12.11661,21.59241 -12.11661,21.59241 0,0 -2.33011,4.03887 -8.54376,2.33012 -6.21364,-1.70875 -8.07774,-12.27195 -8.07774,-12.27195 0,0 -1.86409,-4.03887 5.43695,-6.05831 z" />
    <path
       style="fill:#e1ff6a;fill-opacity:1;stroke:#464214;stroke-width:0.15534118999999999px;stroke-linecap:butt;stroke-linejoin:miter;stroke-opacity:1"
       id="path3120"
       d="m 32.503241,74.401299 c 0,0 7.76706,-15.8448 9.94183,-19.10696 2.17478,-3.26217 3.4175,-6.99035 5.43694,-0.77671 2.01944,6.21365 2.95149,27.02936 2.95149,27.02936 0,0 0.15533,4.34956 -5.90297,6.21366 -6.05831,1.86409 -15.22344,-4.66025 -15.22344,-4.66025 0,0 -2.33011,-2.17476 2.79615,-8.6991 z" />
    <path
       style="fill:#e1ff6a;fill-opacity:1;stroke:#464214;stroke-width:0.15534118999999999px;stroke-linecap:butt;stroke-linejoin:miter;stroke-opacity:1"
       id="path3122"
       d="m 69.474431,79.061539 c 0,0 -3.4175,4.34955 -11.96126,6.52433 -8.54377,2.17478 -6.369,-15.22343 -6.369,-15.22343 0,0 0.15534,-8.07775 -0.93204,-12.58264 -1.08738,-4.5049 -1.8641,-11.80594 3.88353,-4.19421 5.74763,7.61172 8.69911,11.18456 12.4273,16.15548 3.72819,4.97091 2.95147,9.32047 2.95147,9.32047 z" />
    <path
       style="fill:#e1ff6a;fill-opacity:1;stroke:#464214;stroke-width:0.15534118999999999px;stroke-linecap:butt;stroke-linejoin:miter;stroke-opacity:1"
       id="path3124"
       d="m 58.755891,57.624459 -5.43694,-5.90297 c 0,0 -3.4175,-6.05831 4.03887,-2.79614 7.45638,3.26217 25.63129,7.45637 25.63129,7.45637 0,0 3.88353,-0.31067 2.79615,5.90297 -1.08738,6.21365 -9.32047,12.73798 -9.32047,12.73798 0,0 -4.66023,2.17478 -7.30104,-2.48546 -2.64079,-4.66024 -10.40786,-14.91275 -10.40786,-14.91275 z" />
    <path
       style="fill:#e1ff6a;fill-opacity:1;stroke:#464214;stroke-width:0.15534118999999999px;stroke-linecap:butt;stroke-linejoin:miter;stroke-opacity:1"
       id="path3126"
       d="m 73.202621,22.206669 -16.93218,14.13605 c 0,0 -9.16513,8.6991 -4.34956,-2.48547 4.81558,-11.18456 6.67967,-21.28174 6.67967,-21.28174 0,0 -0.46603,-4.6602299 6.83501,-2.9514799 7.30104,1.7087599 9.7865,7.4563799 9.7865,7.4563799 -0.091,1.4759 1.83893,2.14341 -2.01944,5.12626 z" />
    <path
       style="fill:#e1ff6a;fill-opacity:1;stroke:#464214;stroke-width:0.15534118999999999px;stroke-linecap:butt;stroke-linejoin:miter;stroke-opacity:1"
       id="path3128"
       d="m 55.338391,38.672829 c 18.33026,-15.37878 18.79627,-16.46616 18.79627,-16.46616 0,0 2.79615,-5.12626 7.61173,0.93204 4.81557,6.05831 4.5049,12.27195 4.5049,12.27195 0,0 -0.31069,2.33013 -5.90297,3.26217 -5.59229,0.93205 -22.05845,3.26217 -22.05845,3.26217 0,0 -8.54377,2.6408 -2.95148,-3.26217 z" />
    <path
       style="fill:#e1ff6a;fill-opacity:1;stroke:#464214;stroke-width:0.15534118999999999px;stroke-linecap:butt;stroke-linejoin:miter;stroke-opacity:1"
       id="path3130"
       d="m 58.289871,43.333069 c 0,0 16.00014,-3.72819 22.21379,-3.57285 6.21364,0.15535 7.1457,-1.39807 7.45638,2.33011 0.31068,3.72819 2.17477,4.03888 -0.31068,10.09719 -2.48547,6.0583 -11.49526,0.62135 -11.49526,0.62135 l -17.86423,-4.66023 c 0,0 -10.71855,-2.95148 0,-4.81557 z" />
  </g>
  <path
     d="m 9.9649911,71.000539 c -6.25675,-13.61119 -7.46419,-11.08653 -8.56188,-23.49028 -1.09767998,-12.40375 0.87814,-17.56282 3.18327,-21.95353 2.30512,-4.39071 9.1107099,-10.867 10.9767599,-12.51351 1.86606,-1.64652 9.8791,-7.0251299 17.12376,-8.7814199 7.24466,-1.75627 10.20839,-3.29302997 18.11166,-2.41488 7.90328,0.87814 10.5377,1.75627 18.3312,5.81768 7.79351,4.0614099 13.28189,12.0744499 17.6726,18.0018999 4.3907,5.92745 5.37861,18.44096 3.95163,25.68564 -1.42698,7.24466 1.53674,7.24466 -8.45212,21.95352 -9.98884,14.70887 -33.36936,18.9898 -41.82147,18.3312 -8.45211,-0.65861 -16.46515,-5.70792 -22.94143,-12.07444 -6.4763,-6.36652 -3.4028,-3.07349 -7.5739799,-8.56188 z m 19.6484099,20.74609 c 0,0 -6.03722,-4.06141 -6.91536,-4.61024 -0.87813,-0.54885 -3.84186,-1.97582 -7.1349,-4.72001 -3.29303,-2.7442 -4.82977,-5.15909 -6.5860599,-8.56188 -1.75627,-3.4028 -3.07348,-4.50048 -6.25675,-12.62328 -3.18325998,-8.12281 -2.74419998,-19.75818 -2.41489998,-23.49029 0.32931,-3.73209 2.74419998,-11.63536 6.14699998,-16.35537 3.4028,-4.72001 12.8428099,-13.7209599 17.8921299,-15.8065499 5.04931,-2.08558 13.28188,-4.50047 17.78236,-5.15906997 4.50047,-0.65861 10.97676,-0.54884 17.56283,1.97580997 6.58606,2.52466 12.29398,4.17117 14.81863,6.14699 2.52465,1.9758299 11.96467,12.1842199 12.73305,13.8307299 0.76837,1.64651 5.59815,10.20839 5.81768,13.94049 0.21953,3.73209 0.98791,10.97677 0.98791,15.47724 0,4.50048 -5.59815,18.98981 -6.91536,20.30702 -1.31721,1.31721 -8.23257,9.33025 -10.53769,10.86699 -2.30512,1.53676 -7.02514,6.91536 -16.68469,9.65956 -9.65956,2.74419 -16.24561,1.86605 -16.24561,1.86605 0,0 -6.03723,1.09767 -14.05027,-2.74419 z"
     id="path2997"
     style="fill:#9cba44;fill-opacity:1;fill-rule:evenodd;stroke:#454b1b;stroke-width:0.15534118999999999px;stroke-linecap:butt;stroke-linejoin:miter;stroke-opacity:1" />
</svg>
