<?xml version="1.0" encoding="utf-8"?>
<!-- Generator: Adobe Illustrator 15.1.0, SVG Export Plug-In . SVG Version: 6.00 Build 0)  -->
<svg version="1.2" baseProfile="tiny" id="Layer_1" xmlns="http://www.w3.org/2000/svg" xmlns:xlink="http://www.w3.org/1999/xlink"
	 x="0px" y="0px" width="114.83px" height="65.171px" viewBox="0 0 114.83 65.171" xml:space="preserve">
<path fill="#686969" d="M82.584,34.825L77.05,49.14h-7.542L88.722,0h6.916l19.193,49.14h-7.795l-5.396-14.314H82.584z
	 M99.077,27.909L92.163,9.247l-7.049,18.662H99.077z"/>
<path fill="#B42E34" d="M42.32,49.099h19.959V27.83H42.32V49.099z M42.32,20.833h19.959l0.001-20.83H42.32V20.833z M27.623,0.003
	v49.096h7.543V0.003H27.623z M69.434,0.003v49.096h7.284V0.003H69.434z"/>
<path fill="#686969" d="M7.443,49.14H0.287V0h14.223c5.889,0,10.386,1.363,13.487,4.088s4.653,6.663,4.651,11.82
	c0.002,4.008-1.296,7.355-3.891,10.047c-2.594,2.691-5.936,4.136-10.022,4.339L32.648,49.14h-8.907L7.443,26.336V49.14z
	 M7.443,25.523h3.653c4.933,0,8.606-0.798,11.018-2.398c2.412-1.6,3.617-4.032,3.618-7.298c0-3.178-1.037-5.509-3.111-6.996
	c-2.072-1.486-5.352-2.231-9.836-2.231H7.443V25.523z"/>
<path fill="#686969" d="M5.592,56.985l3.588,8.08H7.016L6.35,63.47H2.735l-0.601,1.596H0l3.257-8.08H5.592z M5.755,62.058
	l-1.303-3.143l-1.186,3.143H5.755z"/>
<path fill="#686969" d="M13.843,56.985h3.609c0.783,0,1.419,0.227,1.91,0.68c0.488,0.453,0.733,1,0.733,1.645
	c0.001,0.893-0.462,1.551-1.388,1.979c0.409,0.18,0.796,0.676,1.16,1.488c0.364,0.809,0.716,1.572,1.057,2.289h-2.217
	c-0.131-0.268-0.359-0.773-0.686-1.521c-0.325-0.748-0.605-1.229-0.839-1.441c-0.233-0.211-0.482-0.316-0.749-0.316h-0.578
	l0.001,3.279h-2.014L13.843,56.985z M15.857,58.466v1.84h1.063c0.341,0,0.609-0.082,0.808-0.24c0.198-0.16,0.299-0.391,0.299-0.686
	c0-0.609-0.386-0.914-1.152-0.914H15.857z"/>
<path fill="#686969" d="M33.127,62.603v1.766c-1.012,0.535-2.069,0.803-3.175,0.803c-1.436,0-2.578-0.396-3.428-1.188
	c-0.852-0.793-1.277-1.77-1.277-2.932c0-1.158,0.449-2.145,1.346-2.955c0.896-0.809,2.068-1.215,3.515-1.215
	c1.151,0,2.128,0.238,2.926,0.713v1.799c-0.979-0.553-1.906-0.828-2.782-0.828c-0.86,0-1.563,0.23-2.108,0.691
	c-0.546,0.461-0.817,1.049-0.817,1.762c0,0.717,0.269,1.309,0.807,1.775s1.228,0.701,2.067,0.701c0.418,0,0.818-0.057,1.204-0.166
	C31.789,63.22,32.364,62.978,33.127,62.603z"/>
<path fill="#686969" d="M46.519,56.985v8.08h-2.014v-3.27H40.48v3.27h-2.012l-0.002-8.08h2.014v3.244h4.025v-3.244H46.519z"/>
<path fill="#686969" d="M54.125,56.985l0.002,8.08h-2.014v-8.08H54.125z"/>
<path fill="#686969" d="M67.007,56.985v1.48h-2.927v6.6h-2.013v-6.6H59.14v-1.48H67.007z"/>
<path fill="#686969" d="M77.944,63.585v1.48h-5.959l-0.002-8.08h5.878v1.48h-3.864v1.695h3.685v1.48h-3.683v1.943H77.944z"/>
<path fill="#686969" d="M90.753,62.603v1.766c-1.01,0.535-2.068,0.803-3.176,0.803c-1.434,0-2.576-0.396-3.428-1.188
	c-0.85-0.793-1.274-1.77-1.274-2.932c0-1.158,0.448-2.145,1.344-2.955c0.896-0.809,2.066-1.215,3.514-1.215
	c1.152,0,2.129,0.238,2.928,0.713v1.799c-0.98-0.553-1.906-0.828-2.783-0.828c-0.861,0-1.563,0.23-2.109,0.691
	c-0.545,0.461-0.818,1.049-0.818,1.762c0,0.717,0.27,1.309,0.809,1.775c0.537,0.467,1.227,0.701,2.066,0.701
	c0.418,0,0.818-0.057,1.203-0.166C89.415,63.22,89.989,62.978,90.753,62.603z"/>
<path fill="#686969" d="M103.364,56.985v1.48h-2.928v6.6h-2.014v-6.6h-2.926v-1.48H103.364z"/>
<path fill="#686969" d="M113.802,57.507v1.578c-1.072-0.48-1.924-0.723-2.563-0.723c-0.361,0-0.65,0.063-0.863,0.184
	c-0.215,0.121-0.322,0.283-0.322,0.482c0,0.154,0.078,0.301,0.232,0.439s0.529,0.318,1.127,0.537
	c0.598,0.223,1.076,0.426,1.434,0.613c0.359,0.189,0.668,0.455,0.93,0.801c0.26,0.342,0.391,0.775,0.391,1.299
	c0,0.748-0.285,1.344-0.852,1.789c-0.57,0.443-1.32,0.664-2.248,0.664c-1.004,0-1.975-0.26-2.916-0.781v-1.74
	c0.539,0.361,1.018,0.627,1.434,0.791c0.418,0.166,0.859,0.25,1.326,0.25c0.791,0,1.186-0.25,1.186-0.746
	c0-0.168-0.08-0.328-0.236-0.48c-0.158-0.15-0.541-0.334-1.143-0.549c-0.605-0.217-1.082-0.416-1.436-0.602
	s-0.658-0.449-0.914-0.793s-0.385-0.783-0.385-1.32c0-0.693,0.279-1.252,0.838-1.678c0.561-0.428,1.309-0.641,2.244-0.641
	C111.931,56.882,112.843,57.091,113.802,57.507z"/>
</svg>
