<?xml version="1.0" standalone="no"?>
<?xml-stylesheet type="text/css" href="svg.css" ?>
<!DOCTYPE svg PUBLIC "-//W3C//DTD SVG 1.1//EN"
  "http://www.w3.org/Graphics/SVG/1.1/DTD/svg11.dtd">
<svg id="US-map" 
  version="1.1"
  xmlns="http://www.w3.org/2000/svg"
  xmlns:xlink="http://www.w3.org/1999/xlink"
  x="0px" y="0px" width="316px" height="194px"
  viewBox="0 0 316 194">

<g id="HI">
<g id="LWPOLYLINE">
	
		<polygon fill="#f0ebbc" stroke="#0000FF" stroke-width="0.7087" stroke-linecap="round" stroke-linejoin="round" stroke-miterlimit="10" points="
		68.521,158.76 69.721,158.76 70.32,159.239 70.08,160.199 69.961,160.68 68.761,161.399 68.04,161.399 67.32,160.68 
		66.721,160.199 68.04,159.239 	"/>
</g>
<g id="POLYLINE">
	
		<polyline fill="#f0ebbc" stroke="#0000FF" stroke-width="0.7087" stroke-linecap="round" stroke-linejoin="round" stroke-miterlimit="10" points="
		78.601,165.72 78.601,165.72 78.602,165.72 78.602,165.72 78.603,165.72 78.604,165.72 78.605,165.72 78.607,165.72 78.609,165.72 
		78.612,165.72 78.615,165.72 78.619,165.72 78.622,165.72 78.625,165.72 78.628,165.72 78.632,165.72 78.638,165.72 78.642,165.72 
		78.646,165.72 78.651,165.72 78.656,165.72 78.662,165.72 78.667,165.72 78.673,165.72 78.68,165.72 78.686,165.72 78.691,165.72 
		78.698,165.72 78.705,165.72 78.711,165.72 78.718,165.72 78.727,165.72 78.733,165.72 78.741,165.72 78.749,165.72 78.756,165.72 
		78.765,165.72 78.772,165.72 78.781,165.72 78.79,165.72 78.797,165.72 78.807,165.72 78.815,165.72 78.824,165.72 78.833,165.72 
		78.842,165.72 78.852,165.72 78.86,165.72 78.87,165.72 78.879,165.72 78.889,165.72 78.898,165.72 78.907,165.72 78.917,165.72 
		78.926,165.72 78.937,165.72 78.946,165.72 78.957,165.72 78.966,165.72 78.976,165.72 78.985,165.72 78.996,165.72 79.005,165.72 
		79.016,165.72 79.025,165.72 79.036,165.72 79.045,165.72 79.056,165.72 79.065,165.72 79.076,165.72 79.084,165.72 79.094,165.72 
		79.104,165.72 79.114,165.72 79.124,165.72 79.133,165.72 79.144,165.72 79.152,165.72 79.162,165.72 79.171,165.72 79.181,165.72 
		79.189,165.72 79.198,165.72 79.208,165.72 79.216,165.72 79.226,165.72 79.234,165.72 79.244,165.72 79.251,165.72 79.26,165.72 
		79.269,165.72 79.276,165.72 79.285,165.72 79.292,165.72 79.299,165.72 79.308,165.72 79.314,165.72 79.322,165.72 79.33,165.72 
		79.336,165.72 79.342,165.72 79.35,165.72 79.355,165.72 79.362,165.72 79.369,165.72 79.374,165.72 79.379,165.72 79.384,165.72 
		79.39,165.72 79.395,165.72 79.399,165.72 79.404,165.72 79.409,165.72 79.413,165.72 79.417,165.72 79.419,165.72 79.422,165.72 
		79.425,165.72 79.428,165.72 79.432,165.72 79.434,165.72 79.436,165.72 79.437,165.72 79.438,165.72 79.439,165.72 79.44,165.72 
		79.44,165.72 79.44,165.72 	"/>
</g>
<g id="POLYLINE_1_">
	
		<polyline fill="#f0ebbc" stroke="#0000FF" stroke-width="0.7087" stroke-linecap="round" stroke-linejoin="round" stroke-miterlimit="10" points="
		79.44,165.72 79.44,165.72 79.44,165.72 79.439,165.72 79.438,165.72 79.437,165.72 79.436,165.72 79.434,165.72 79.432,165.72 
		79.428,165.72 79.425,165.72 79.422,165.72 79.419,165.72 79.417,165.72 79.413,165.72 79.409,165.72 79.404,165.72 79.399,165.72 
		79.395,165.72 79.39,165.72 79.384,165.72 79.379,165.72 79.374,165.72 79.369,165.72 79.362,165.72 79.355,165.72 79.35,165.72 
		79.342,165.72 79.336,165.72 79.33,165.72 79.322,165.72 79.314,165.72 79.308,165.72 79.299,165.72 79.292,165.72 79.285,165.72 
		79.276,165.72 79.269,165.72 79.26,165.72 79.251,165.72 79.244,165.72 79.234,165.72 79.226,165.72 79.216,165.72 79.208,165.72 
		79.198,165.72 79.189,165.72 79.181,165.72 79.171,165.72 79.162,165.72 79.152,165.72 79.144,165.72 79.133,165.72 79.124,165.72 
		79.114,165.72 79.104,165.72 79.094,165.72 79.084,165.72 79.076,165.72 79.065,165.72 79.056,165.72 79.045,165.72 79.036,165.72 
		79.025,165.72 79.016,165.72 79.005,165.72 78.996,165.72 78.985,165.72 78.976,165.72 78.966,165.72 78.957,165.72 78.946,165.72 
		78.937,165.72 78.926,165.72 78.917,165.72 78.907,165.72 78.898,165.72 78.889,165.72 78.879,165.72 78.87,165.72 78.86,165.72 
		78.852,165.72 78.842,165.72 78.833,165.72 78.824,165.72 78.815,165.72 78.807,165.72 78.797,165.72 78.79,165.72 78.781,165.72 
		78.772,165.72 78.765,165.72 78.756,165.72 78.749,165.72 78.741,165.72 78.733,165.72 78.727,165.72 78.718,165.72 78.711,165.72 
		78.705,165.72 78.698,165.72 78.691,165.72 78.686,165.72 78.68,165.72 78.673,165.72 78.667,165.72 78.662,165.72 78.656,165.72 
		78.651,165.72 78.646,165.72 78.642,165.72 78.638,165.72 78.632,165.72 78.628,165.72 78.625,165.72 78.622,165.72 78.619,165.72 
		78.615,165.72 78.612,165.72 78.609,165.72 78.607,165.72 78.605,165.72 78.604,165.72 78.603,165.72 78.602,165.72 78.602,165.72 
		78.601,165.72 78.601,165.72 	"/>
</g>
<g id="LWPOLYLINE_1_">
	
		<polygon fill="#f0ebbc" stroke="#0000FF" stroke-width="0.7087" stroke-linecap="round" stroke-linejoin="round" stroke-miterlimit="10" points="
		79.44,165.72 79.561,165.119 80.641,166.079 81.721,166.079 81.601,165.119 81.601,164.879 80.641,164.64 80.16,163.68 
		79.801,162.72 77.641,163.68 78.12,164.64 78.24,164.879 78.24,165.119 78.601,165.72 	"/>
</g>
<g id="LWPOLYLINE_2_">
	
		<path fill="#f0ebbc" stroke="#0000FF" stroke-width="0.7087" stroke-linecap="round" stroke-linejoin="round" stroke-miterlimit="10" d="
		M87.841,167.399l0.6-0.48l0.72-0.239h-2.544c-0.021,0-0.042-0.001-0.063-0.004l-1.832-0.236l-0.24,0.479l-0.24,0.48H87.841z"/>
</g>
<g id="LWPOLYLINE_3_">
	
		<polygon fill="#f0ebbc" stroke="#0000FF" stroke-width="0.7087" stroke-linecap="round" stroke-linejoin="round" stroke-miterlimit="10" points="
		86.521,169.439 86.16,168.72 87.24,168.72 87.841,169.439 87.24,169.8 86.641,169.8 	"/>
</g>
<g id="LWPOLYLINE_4_">
	
		<polygon fill="#f0ebbc" stroke="#0000FF" stroke-width="0.7087" stroke-linecap="round" stroke-linejoin="round" stroke-miterlimit="10" points="
		93.12,170.399 93.961,169.8 93.48,169.439 92.16,168.6 91.921,168.359 90.12,168.6 89.881,168.359 89.28,167.76 88.801,168.359 
		88.681,168.6 89.4,169.439 90.24,169.439 90.36,169.8 90.601,170.399 	"/>
</g>
<g id="LWPOLYLINE_5_">
	
		<polygon fill="#f0ebbc" stroke="#0000FF" stroke-width="0.7087" stroke-linecap="round" stroke-linejoin="round" stroke-miterlimit="10" points="
		96.24,183.479 94.32,182.399 94.44,181.8 94.561,180.239 94.561,180.119 94.08,179.039 93.36,177.359 94.921,175.56 
		94.921,175.439 94.44,174.119 96.12,174.119 99.12,175.439 99.12,175.56 100.801,177.359 102.24,179.039 101.04,180.119 
		101.04,180.239 97.2,181.8 96.841,182.399 	"/>
</g>
</g>
<g id="AK">
	
		<polygon fill="#f0ebbc" stroke="#0000FF" stroke-width="0.7087" stroke-linecap="round" stroke-linejoin="round" stroke-miterlimit="10" points="
		61.921,181.68 62.761,182.999 66.12,187.56 69.48,188.64 69.721,189.119 69.601,189.479 69.36,190.56 69.12,191.999 69,192.479 
		66.12,193.199 64.561,192.479 63.24,191.999 62.04,190.56 61.08,189.479 60.841,189.119 60.48,188.64 59.761,187.56 56.4,182.999 
		55.08,181.68 55.08,181.56 54.961,181.56 54.721,181.439 52.921,180.6 51.48,180.6 50.4,179.76 45.12,179.279 44.761,178.68 
		44.761,178.56 44.28,177.959 44.16,177.959 44.16,177.84 43.921,177.84 43.44,178.199 43.2,178.199 43.08,177.84 42.961,177.84 
		42.961,177.72 42.601,177.84 41.761,178.199 41.521,178.319 41.521,177.84 41.641,177.72 42.12,176.879 40.681,176.76 
		39.48,176.52 38.881,175.919 39.12,176.399 39.24,176.64 38.881,177.479 39.961,177.959 40.32,178.199 40.561,177.959 
		41.04,177.84 41.16,177.72 41.16,178.199 41.04,178.56 41.04,179.159 40.921,179.64 39.48,179.64 39.48,179.159 39,178.8 
		38.761,178.8 37.921,179.279 37.2,179.279 37.2,178.68 36.24,178.56 36.841,179.64 36.841,179.879 35.4,180.359 34.681,181.079 
		34.561,181.199 34.32,181.439 33.48,181.199 32.881,181.079 32.761,180.359 32.761,179.64 33.24,178.56 33.36,178.199 
		33.48,177.959 33.721,177.479 34.08,176.64 34.08,176.399 34.921,175.919 36.24,175.199 37.681,174.359 35.641,175.079 
		33.721,175.68 32.04,178.319 31.801,178.68 30.841,179.399 30.721,179.52 30.24,179.879 29.881,180.119 29.16,180.84 29.4,180.84 
		29.881,181.079 30.24,181.199 30,182.159 29.4,182.64 26.881,184.56 24.12,186.72 23.16,187.199 21.36,188.159 21.12,188.399 
		20.16,188.879 19.921,188.999 19.681,189.119 18.48,189.72 16.2,189.72 14.881,189.84 14.881,189.119 15,188.999 14.761,189.119 
		14.28,189.6 14.04,189.84 13.2,190.56 11.521,191.159 8.28,191.159 8.04,191.279 4.32,192.479 1.2,193.199 0,193.439 
		0.601,193.199 2.04,192.479 4.681,191.279 4.921,191.159 5.28,191.159 6.721,190.56 9,189.84 12.24,189.6 12.961,189.119 
		13.2,188.999 13.32,188.879 14.28,188.159 14.641,187.919 15.12,188.159 16.44,188.879 16.561,188.399 16.561,188.159 18,187.199 
		18.841,186.72 22.44,184.56 23.28,182.64 23.521,182.159 24.24,181.199 24.36,181.079 24.48,180.84 22.32,181.079 22.44,180.84 
		22.561,180.119 22.681,179.879 22.44,180.119 21.601,181.56 21.48,181.56 20.04,180.119 19.801,179.879 19.44,179.52 19.2,179.399 
		18.841,179.52 18.36,179.76 18,179.879 17.28,180.119 16.32,179.879 15.841,179.76 15.961,179.52 16.08,179.399 16.561,178.68 
		16.921,178.319 17.04,175.68 17.04,175.079 17.521,174.359 17.881,173.879 16.681,174.72 16.681,175.56 16.44,175.68 
		15.961,175.919 15.601,176.159 15.12,175.919 14.28,175.68 14.28,175.56 14.04,174.72 13.921,173.879 13.801,173.879 
		12.961,172.919 12.961,172.439 13.561,172.439 14.16,171.84 14.16,171.479 13.561,170.879 13.32,171.119 13.2,170.879 
		12.601,169.68 13.08,168.6 15.721,166.8 16.32,166.199 16.801,165.6 17.04,165.359 17.28,165.6 18.24,166.199 19.32,165.6 
		19.561,165.359 19.681,165.239 20.16,165.359 21.601,165.6 21.721,165.359 22.08,163.56 21.48,162.84 22.801,162.119 
		21.601,161.64 20.881,162.119 19.921,162.72 18.24,162.119 17.16,161.64 16.801,161.64 15.601,160.439 14.761,158.039 
		14.521,157.68 14.28,156.72 18.24,155.879 18.721,155.76 19.561,155.52 20.04,155.76 20.4,155.879 21.24,156.72 22.08,157.68 
		22.44,158.039 23.761,157.68 23.28,157.439 23.16,157.319 22.561,156.959 22.561,156.72 22.2,155.76 22.2,155.52 21.961,155.159 
		22.561,155.52 22.801,155.76 23.04,156.72 23.4,156.959 24.12,157.319 24.24,157.439 25.44,157.319 25.2,156.72 23.521,155.159 
		21.12,154.319 18.721,149.52 18.841,149.399 19.44,148.68 19.921,148.199 20.04,147.959 20.16,147.959 20.881,148.199 
		22.08,148.68 22.561,148.199 22.801,147.959 23.881,146.999 25.561,145.56 25.801,145.199 27.961,144.72 31.921,143.159 
		33.601,144.72 34.08,145.199 34.44,145.56 36.12,145.56 39.48,146.999 40.561,147.959 40.921,148.199 42.24,147.959 
		42.601,147.959 43.08,148.199 43.921,148.68 45.36,147.959 45.961,148.199 46.801,148.68 48.48,149.399 48.48,149.52 
		48.721,154.319 48.841,155.159 48.961,156.72 48.961,158.039 49.2,160.439 49.2,161.64 49.32,162.119 49.32,163.56 49.44,165.359 
		49.561,165.6 49.561,166.8 49.681,168.6 49.801,169.68 49.801,170.879 49.921,171.479 49.921,172.439 50.04,172.919 50.04,174.359 
		50.16,175.199 50.16,175.919 50.28,176.52 50.28,177.959 53.16,177.959 53.04,178.56 53.04,178.68 53.641,179.279 54.12,179.76 
		55.08,180.6 55.921,181.439 56.04,181.56 56.16,181.439 57.48,180.72 57.841,179.52 58.44,179.159 58.801,178.8 59.28,179.159 
		59.761,179.52 60.841,180.72 61.681,181.439 	"/>
</g>
<g id="TX">
	
		<polygon fill="#f0ebbc" stroke="#0000FF" stroke-width="0.7087" stroke-linecap="round" stroke-linejoin="round" stroke-miterlimit="10" points="
		148.921,190.439 148.921,189.72 148.801,188.879 144.48,189.72 143.16,188.879 139.08,186.239 138.961,184.319 137.521,182.52 
		137.4,180.479 137.4,178.319 137.28,178.079 134.04,174.479 131.04,171.119 130.921,170.879 130.921,170.279 130.801,168.84 
		130.801,167.64 129.36,166.319 126.601,163.56 124.801,161.76 119.4,161.76 116.4,161.64 116.4,161.76 115.681,164.64 
		114.721,165.479 113.28,166.8 112.801,167.159 111.36,166.8 109.921,165.479 107.4,165.479 107.04,164.64 105.601,161.76 
		105.601,161.64 104.881,160.079 104.761,159.72 104.641,155.399 104.641,155.279 100.08,150.84 93.12,144.119 93.12,143.999 
		93.12,141.959 115.921,141.959 116.28,137.64 116.641,132.959 116.761,132.239 116.761,131.399 116.761,131.279 116.881,129.6 
		117,128.039 117.36,124.919 118.44,111.239 136.561,111.239 136.561,124.919 138.36,128.039 140.16,128.039 143.641,129.6 
		147.12,129.6 152.16,131.279 168.24,131.399 168.24,132.239 171,132.239 171.121,132.959 173.881,132.959 173.881,137.64 
		174,143.999 174,144.119 177.48,150.84 176.521,155.279 176.521,155.399 176.521,159.72 176.521,160.079 175.921,161.64 
		175.921,161.76 175.561,162.84 173.041,163.56 170.16,164.399 169.801,163.56 169.561,162.84 169.201,161.76 169.08,161.76 
		167.281,163.56 168.24,166.319 166.561,167.64 165.24,168.84 163.44,168.84 162.24,170.279 160.08,170.879 159.601,171.119 
		155.04,174.479 153.48,178.079 153.36,178.319 151.801,180.479 151.921,182.52 152.04,184.319 152.16,186.239 152.4,188.879 
		152.4,189.72 152.521,190.439 149.04,191.52 	"/>
</g>
<g id="NM">
	
		<polyline fill="#f0ebbc" stroke="#0000FF" stroke-width="0.7087" stroke-linecap="round" stroke-linejoin="round" stroke-miterlimit="10" points="
		118.561,107.04 118.561,106.56 83.244,103.696 82.801,106.8 82.32,110.76 78.12,141.959 78,142.68 77.881,143.999 77.761,144.479 
		80.04,145.68 82.44,145.68 82.44,144.479 82.44,143.999 82.561,142.68 93.12,143.999 93.12,142.68 93.12,141.959 115.921,141.959 
		118.44,110.76 118.561,106.8 	"/>
</g>
<g id="OK">
	
		<polygon fill="#f0ebbc" stroke="#0000FF" stroke-width="0.7087" stroke-linecap="round" stroke-linejoin="round" stroke-miterlimit="10" points="
		169.32,106.92 124.681,106.92 124.681,106.8 118.561,106.8 118.561,107.88 118.44,110.76 118.44,111.239 136.561,111.239 
		136.561,124.919 138.24,127.919 139.801,127.919 143.641,129.6 147.12,129.6 152.16,131.279 168.24,131.399 168.24,132.119 
		168.24,132.239 171,132.239 171,132.119 171,131.399 171,131.279 170.881,129.6 170.641,127.919 170.521,124.919 169.44,111.239 
		169.44,110.76 169.44,107.88 	"/>
</g>
<g id="AZ">
	
		<polygon fill="#f0ebbc" stroke="#0000FF" stroke-width="0.7087" stroke-linecap="round" stroke-linejoin="round" stroke-miterlimit="10" points="
		54.48,97.8 82.44,103.319 83.28,103.439 83.16,104.279 83.04,105.119 82.32,110.76 81.36,117.6 81.12,119.999 80.761,122.64 
		80.4,124.919 80.28,125.76 80.04,127.8 79.801,129.6 78,142.68 77.761,144.479 64.32,142.68 43.44,129.6 43.08,127.8 46.32,127.8 
		47.4,125.76 45.36,124.919 45.601,122.64 46.681,119.999 50.881,117.6 48,110.76 49.561,110.76 49.561,105.119 53.04,105.119 
		54.48,104.279 54.48,103.439 54.48,103.319 	"/>
</g>
<g id="CA">
	
		<polygon fill="#f0ebbc" stroke="#0000FF" stroke-width="0.7087" stroke-linecap="round" stroke-linejoin="round" stroke-miterlimit="10" points="
		43.08,127.8 43.08,127.68 30.12,125.76 28.921,125.52 28.921,124.919 28.561,122.64 28.2,119.999 28.08,119.879 26.28,117.6 
		25.2,116.159 23.881,115.919 23.761,113.999 24.601,113.52 22.2,112.56 22.08,112.439 21.12,112.56 21,112.439 19.44,110.76 
		17.4,108.479 12.961,107.76 12.24,100.439 11.641,97.439 11.641,93.96 10.2,91.8 10.2,89.04 10.801,89.04 10.801,86.04 9.36,85.08 
		9.36,81.119 9.841,81.479 11.04,82.56 11.881,81.479 10.561,77.88 9.841,77.52 9.601,77.88 9,78.84 8.4,77.88 8.16,77.52 
		7.44,76.319 7.44,72.479 5.761,70.92 5.881,60.96 4.681,60.239 4.681,56.399 6.36,56.399 6.36,54.119 8.28,52.199 8.28,46.199 
		26.761,52.199 29.761,53.159 29.521,54.119 29.04,56.399 28.32,60.239 28.2,60.96 26.16,70.92 25.801,72.479 25.32,74.76 
		26.28,76.319 27.12,77.52 27.24,77.88 29.641,81.479 30.24,82.56 31.801,85.08 32.4,86.04 34.32,89.04 36.12,91.8 37.44,93.96 
		39.601,97.439 41.521,100.439 46.08,107.76 46.561,108.479 48,110.76 48.721,112.439 48.721,112.56 49.2,113.52 49.44,113.999 
		50.28,115.919 50.28,116.159 50.881,117.6 46.921,119.879 46.681,119.999 45.601,122.64 45.36,124.919 46.921,125.52 47.4,125.76 
		46.44,127.68 46.32,127.8 	"/>
</g>
<g id="NV">
	
		<polyline fill="#f0ebbc" stroke="#0000FF" stroke-width="0.7087" stroke-linecap="round" stroke-linejoin="round" stroke-miterlimit="10" points="
		61.44,61.08 61.561,60.479 46.254,57.395 47.28,53.159 29.761,53.159 28.2,60.84 25.32,74.76 39.841,97.8 43.32,103.319 
		43.44,103.439 48,110.76 49.561,110.76 49.561,103.439 51.24,103.439 52.2,104.279 53.04,105.119 54.48,104.279 54.48,103.439 
		54.48,103.319 54.48,97.8 58.801,74.76 61.44,60.84 	"/>
</g>
<g id="UT">
	
		<polygon fill="#f0ebbc" stroke="#0000FF" stroke-width="0.7087" stroke-linecap="round" stroke-linejoin="round" stroke-miterlimit="10" points="
		61.44,60.84 77.881,63.72 76.921,71.88 86.521,72.72 83.881,97.8 83.28,103.439 54.48,97.8 59.16,72.72 59.4,71.88 60.841,63.72 	
		"/>
</g>
<g id="CO">
	
		<polygon fill="#f0ebbc" stroke="#0000FF" stroke-width="0.7087" stroke-linecap="round" stroke-linejoin="round" stroke-miterlimit="10" points="
		124.921,103.439 126.12,84.6 126.36,77.279 114.601,75.84 86.521,72.72 86.16,75.84 86.04,77.279 85.2,84.6 83.28,103.439 
		118.561,106.8 124.681,106.8 	"/>
</g>
<g id="KS">
	
		<polygon fill="#f0ebbc" stroke="#0000FF" stroke-width="0.7087" stroke-linecap="round" stroke-linejoin="round" stroke-miterlimit="10" points="
		164.4,84.6 135.841,84.6 126.12,84.6 126.12,84.96 126.12,85.08 126,86.279 125.881,88.92 125.641,92.159 124.681,106.92 
		169.32,106.92 169.201,92.159 166.44,88.92 167.4,86.279 164.641,85.08 164.521,84.96 	"/>
</g>
<g id="NE">
	
		<polygon fill="#f0ebbc" stroke="#0000FF" stroke-width="0.7087" stroke-linecap="round" stroke-linejoin="round" stroke-miterlimit="10" points="
		148.801,64.92 147.12,63.72 146.28,63 116.521,62.04 116.4,63 116.28,63.72 116.16,64.92 115.921,66.359 114.601,75.84 
		126.36,77.279 126.24,80.76 126.12,84.6 164.4,84.6 162.48,80.76 161.281,77.279 160.801,75.84 157.44,66.359 155.761,64.92 
		154.32,63.72 	"/>
</g>
<g id="WY">
	
		<polygon fill="#f0ebbc" stroke="#0000FF" stroke-width="0.7087" stroke-linecap="round" stroke-linejoin="round" stroke-miterlimit="10" points="
		116.521,62.04 116.28,63.72 115.2,71.88 115.08,72.72 114.601,75.84 86.521,72.72 76.921,71.88 77.881,63.72 78.12,62.04 
		80.16,46.199 80.28,45 80.28,41.88 106.44,45 117.36,46.199 	"/>
</g>
<g id="SD">
	
		<polygon fill="#f0ebbc" stroke="#0000FF" stroke-width="0.7087" stroke-linecap="round" stroke-linejoin="round" stroke-miterlimit="10" points="
		154.32,63.72 155.761,64.92 157.561,64.92 157.681,63.72 157.801,63 157.921,62.04 158.161,59.159 158.161,46.199 158.161,44.76 
		157.32,44.76 157.32,43.199 158.4,43.199 157.32,41.04 118.561,40.199 117.961,43.199 117.721,44.76 117.36,46.199 116.641,59.159 
		116.521,62.04 146.28,63 147.12,63.72 148.801,64.92 	"/>
</g>
<g id="ND">
	
		<polygon fill="#f0ebbc" stroke="#0000FF" stroke-width="0.7087" stroke-linecap="round" stroke-linejoin="round" stroke-miterlimit="10" points="
		154.681,17.52 120.24,17.159 120.24,17.52 120,20.88 118.921,34.56 118.681,38.64 118.561,40.199 157.32,41.04 157.681,40.199 
		158.28,38.64 156.24,34.56 155.04,20.88 	"/>
</g>
<g id="MT">
	
		<polygon fill="#f0ebbc" stroke="#0000FF" stroke-width="0.7087" stroke-linecap="round" stroke-linejoin="round" stroke-miterlimit="10" points="
		60.841,19.8 65.881,27.72 63.721,34.92 63.36,36 68.16,36 68.641,40.199 68.761,41.52 70.08,41.88 70.681,42 70.681,44.76 
		80.28,45 80.28,44.76 80.28,42 80.28,41.88 81.721,42 106.44,45 117.36,46.199 117.601,45 118.2,42 118.2,41.88 118.32,41.52 
		118.561,40.199 118.801,36 118.921,34.92 119.4,27.72 120,19.8 120.24,17.159 93.36,13.92 61.44,8.52 61.08,13.92 60.961,17.159 	
		"/>
</g>
<g id="ID">
	
		<polygon fill="#f0ebbc" stroke="#0000FF" stroke-width="0.7087" stroke-linecap="round" stroke-linejoin="round" stroke-miterlimit="10" points="
		49.2,44.76 49.801,42.72 49.681,42 49.561,41.52 49.08,39.119 51.36,36 54.48,31.8 52.561,27.72 52.561,27.6 53.881,19.8 
		55.921,8.52 56.04,7.56 61.44,8.52 60.841,19.8 65.761,27.6 65.881,27.72 64.681,31.8 63.36,36 68.16,36 68.521,39.119 
		68.761,41.52 70.681,42 70.681,42.72 70.681,44.76 80.28,45 78.721,57.119 78.24,60.84 77.881,63.72 61.44,60.84 46.32,57.119 
		49.2,45 	"/>
</g>
<g id="OR">
	
		<polygon fill="#f0ebbc" stroke="#0000FF" stroke-width="0.7087" stroke-linecap="round" stroke-linejoin="round" stroke-miterlimit="10" points="
		10.2,42.72 12.12,39.119 14.28,34.92 15.601,31.8 15.721,31.319 16.921,27.6 17.521,25.8 17.521,25.56 17.881,24.72 18.12,24.119 
		19.561,19.92 20.04,18.72 23.881,19.92 23.761,24.119 29.761,24.119 30.601,24.72 31.801,25.56 46.32,25.8 52.561,27.6 
		54.24,31.319 54.48,31.8 52.2,34.92 49.08,39.119 49.801,42.72 48.961,46.199 47.28,53.159 38.521,53.159 29.761,53.159 
		8.28,46.199 	"/>
</g>
<g id="WA">
	
		<polygon fill="#f0ebbc" stroke="#0000FF" stroke-width="0.7087" stroke-linecap="round" stroke-linejoin="round" stroke-miterlimit="10" points="
		30.24,1.199 30.841,1.56 29.641,3.119 29.761,4.8 29.761,5.88 29.16,7.56 28.32,9.96 27.36,10.08 27.36,9.96 27.48,8.52 
		28.08,4.319 27.601,4.199 21,1.199 20.04,0.72 20.04,1.199 20.16,4.199 20.16,4.319 20.521,8.52 20.641,9.96 20.641,10.08 
		20.761,11.399 20.04,18.72 23.881,19.92 23.761,24.119 29.761,24.119 31.801,25.56 46.32,25.8 52.561,27.6 52.801,25.8 
		52.801,25.56 53.16,24.119 53.881,19.92 54.12,18.72 55.44,11.399 55.561,10.08 55.681,9.96 56.04,7.56 47.521,5.88 41.761,4.8 
		37.801,3.119 34.08,1.56 33,1.199 31.561,0.6 29.761,0 29.641,0.6 	"/>
</g>
<g id="LA">
	
		<polygon fill="#f0ebbc" stroke="#0000FF" stroke-width="0.7087" stroke-linecap="round" stroke-linejoin="round" stroke-miterlimit="10" points="
		203.16,157.079 202.801,156.479 202.08,155.279 201.48,154.439 201.48,152.999 201.48,151.8 189.961,151.8 189.841,150.84 
		189.841,149.999 193.801,144.359 193.801,143.999 193.801,141.84 191.761,138.359 191.761,137.64 173.881,137.64 173.881,138.359 
		174,141.84 174,143.999 174.121,144.359 177.121,149.999 177.48,150.84 177.24,151.8 177,152.999 176.641,154.439 176.521,155.279 
		176.521,156.479 176.521,158.279 176.521,159.959 176.521,160.079 176.041,161.159 175.561,162.72 175.561,162.84 181.201,162.72 
		186.961,162.72 187.08,161.159 190.921,161.159 191.281,161.76 192,162.72 192,162.84 193.201,164.52 193.801,165.479 
		194.16,165.959 194.281,166.079 197.041,165.959 197.041,165.479 197.041,164.52 201.48,165.479 201.361,164.52 201.361,162.84 
		201.361,162.72 201.48,162.84 202.201,163.439 203.641,164.399 205.921,166.079 206.881,164.399 206.281,163.439 205.681,162.84 
		205.561,162.72 204.48,161.76 205.201,161.159 206.761,160.079 206.761,159.959 206.881,159.959 205.32,158.399 203.16,159.959 
		203.041,159.959 198,158.279 198.721,156.479 201.48,156.479 201.601,157.079 	"/>
</g>
<g id="MS">
	
		<polygon fill="#f0ebbc" stroke="#0000FF" stroke-width="0.7087" stroke-linecap="round" stroke-linejoin="round" stroke-miterlimit="10" points="
		210.121,129.479 210.121,138.359 210.121,141.84 210.121,144.359 210.24,149.159 210.24,149.999 210.361,151.8 210.48,153.959 
		211.201,154.439 212.641,155.52 207.121,155.52 203.16,157.079 202.201,155.52 201.48,154.439 201.48,153.959 201.48,151.8 
		189.961,151.8 189.841,149.999 190.44,149.159 193.801,144.359 193.801,141.84 191.761,138.359 191.641,129.479 195.721,126.84 
		195.721,123.959 198.24,121.199 198.24,120.6 210,120.6 210,121.199 210.121,123.959 210.121,126.84 	"/>
</g>
<g id="FL">
	
		<polygon fill="#f0ebbc" stroke="#0000FF" stroke-width="0.7087" stroke-linecap="round" stroke-linejoin="round" stroke-miterlimit="10" points="
		264.841,185.879 264.961,188.76 267.721,188.76 270.48,185.879 270.48,185.399 270.36,183.239 270.36,176.159 270.36,174.239 
		267.601,170.039 267.48,169.68 264.721,165.6 264.841,163.8 264.841,162.72 263.28,161.279 260.4,158.399 259.081,155.52 
		258.601,154.439 257.881,152.999 256.921,151.079 256.921,150.959 255.721,148.439 252.24,148.439 252.121,150.959 
		234.361,151.079 234.24,150.959 233.041,149.999 231.961,149.399 217.32,149.999 216.961,150.959 216.961,151.079 216.24,152.999 
		217.561,152.999 217.681,154.439 217.681,154.68 217.801,155.52 220.681,155.52 222.721,154.68 224.641,154.439 226.681,155.52 
		227.16,155.76 231.721,158.159 235.32,158.159 238.44,155.76 242.281,155.52 244.561,158.399 246.721,161.279 249.48,162.72 
		251.28,163.8 251.041,165.6 250.32,169.68 252.001,170.039 252.121,174.239 253.32,176.159 254.641,178.199 256.681,176.159 
		259.201,183.239 264.841,185.399 	"/>
</g>
<g id="AL">
	
		<polygon fill="#f0ebbc" stroke="#0000FF" stroke-width="0.7087" stroke-linecap="round" stroke-linejoin="round" stroke-miterlimit="10" points="
		210,120.6 226.201,119.76 226.44,120.6 231.601,137.52 231.961,149.159 231.961,149.399 217.32,149.999 216.24,152.999 
		217.561,152.999 217.681,153.959 217.801,155.52 212.521,155.52 210.48,153.959 210.361,152.999 210.24,149.999 210.24,149.399 
		210.24,149.159 210.121,137.52 	"/>
</g>
<g id="GA">
	
		<polygon fill="#f0ebbc" stroke="#0000FF" stroke-width="0.7087" stroke-linecap="round" stroke-linejoin="round" stroke-miterlimit="10" points="
		230.16,132.84 231.601,137.399 231.601,137.52 231.961,148.439 231.961,149.399 234.24,150.959 234.361,151.079 252.121,150.959 
		252.24,149.399 252.24,148.439 252.36,148.439 255.721,148.439 257.641,137.52 257.761,137.399 254.4,132.84 240.601,120.6 
		240.961,119.76 241.681,117.84 226.201,119.76 226.44,120.6 	"/>
</g>
<g id="SC">
	
		<polygon fill="#f0ebbc" stroke="#0000FF" stroke-width="0.7087" stroke-linecap="round" stroke-linejoin="round" stroke-miterlimit="10" points="
		264.001,116.76 255.961,116.879 254.521,115.68 253.801,115.079 245.881,115.68 243.48,116.879 241.681,117.84 240.601,120.6 
		241.44,121.319 248.521,127.56 254.4,132.84 255.961,134.999 257.761,137.399 261.121,134.999 262.921,132.84 267.48,127.56 
		269.16,121.319 268.32,120.6 265.201,117.84 264.121,116.879 	"/>
</g>
<g id="AR">
	
		<polygon fill="#f0ebbc" stroke="#0000FF" stroke-width="0.7087" stroke-linecap="round" stroke-linejoin="round" stroke-miterlimit="10" points="
		197.041,111.359 169.44,111.239 169.44,111.359 169.681,113.999 169.681,114.119 169.921,117.479 170.16,121.199 170.4,123.959 
		170.641,126.84 170.881,129.479 171.121,132.959 173.881,132.959 173.881,137.64 191.761,137.64 191.761,132.959 191.641,129.479 
		195.721,126.84 195.721,123.959 198.24,121.199 198.361,117.479 199.801,114.119 195.361,113.999 	"/>
</g>
<g id="MO">
	
		<polygon fill="#f0ebbc" stroke="#0000FF" stroke-width="0.7087" stroke-linecap="round" stroke-linejoin="round" stroke-miterlimit="10" points="
		169.201,92.159 169.201,93.359 169.32,96.84 169.32,100.92 169.32,106.199 169.44,107.88 169.44,109.56 169.44,110.879 
		169.44,111.239 197.041,111.359 195.361,113.999 199.801,114.119 199.801,113.999 199.921,111.359 199.921,111.239 
		199.921,110.879 201.721,109.56 202.08,107.88 202.44,106.199 200.641,106.199 199.201,100.92 194.281,96.84 195.361,93.359 
		194.521,92.159 192.601,92.159 192.361,91.8 190.08,88.92 188.281,86.64 188.16,86.279 187.921,85.08 187.08,80.76 187.08,80.64 
		162.48,80.76 164.641,85.08 167.4,86.279 167.281,86.64 166.44,88.92 168.961,91.8 	"/>
</g>
<g id="IA">
	
		<polygon fill="#f0ebbc" stroke="#0000FF" stroke-width="0.7087" stroke-linecap="round" stroke-linejoin="round" stroke-miterlimit="10" points="
		158.4,69.119 157.44,66.359 157.561,65.04 157.681,63.72 158.161,59.159 188.041,58.08 188.16,59.159 188.281,63.72 190.201,65.04 
		191.4,66.359 193.921,69.119 193.921,71.88 189.841,73.439 190.08,77.399 187.08,80.64 162.48,80.76 162.48,80.64 161.4,77.399 
		159.961,73.439 159.361,71.88 	"/>
</g>
<g id="MN">
	
		<polygon fill="#f0ebbc" stroke="#0000FF" stroke-width="0.7087" stroke-linecap="round" stroke-linejoin="round" stroke-miterlimit="10" points="
		164.641,15.119 164.641,17.52 164.641,17.64 154.681,17.52 154.681,17.64 154.801,19.68 154.921,20.399 155.04,21.6 155.16,23.279 
		155.28,24.359 155.28,24.479 155.28,24.84 155.641,28.199 155.641,28.8 156.24,34.56 156.961,36 158.28,38.64 157.921,39.6 
		157.32,41.04 157.44,41.279 158.4,43.199 157.32,43.199 157.32,44.76 158.161,44.76 158.161,48.96 158.161,55.8 158.161,58.08 
		158.161,59.159 188.041,58.08 186.961,55.8 178.32,48.96 178.32,44.76 178.32,43.199 178.32,41.279 178.681,41.04 181.32,39.6 
		181.201,38.64 181.201,36 182.641,34.56 188.16,28.8 191.4,28.199 194.041,24.84 189.601,24.479 189.121,24.359 186.601,23.279 
		184.44,24.359 182.521,23.279 179.281,21.6 177.24,20.399 173.761,21.6 170.521,20.399 168.24,19.68 167.521,17.64 167.4,17.52 
		166.44,15.119 164.761,15 	"/>
</g>
<g id="NC">
	
		<polygon fill="#f0ebbc" stroke="#0000FF" stroke-width="0.7087" stroke-linecap="round" stroke-linejoin="round" stroke-miterlimit="10" points="
		245.881,115.68 253.801,115.079 254.521,115.68 255.721,116.76 255.961,116.879 263.761,116.76 264.001,116.76 267.24,119.64 
		268.32,120.479 268.32,120.6 269.16,121.319 271.201,120.6 271.44,120.479 273.36,120.6 273.48,120.479 274.681,119.64 
		274.921,116.76 276.36,115.68 277.081,115.079 279.48,113.399 281.761,113.399 286.44,107.88 286.44,106.8 286.44,105.239 
		286.44,104.04 282.721,97.92 253.44,104.04 247.681,105.239 247.921,106.8 246.48,107.88 239.041,113.399 236.761,115.079 
		236.041,115.68 234.48,116.76 234.601,117.84 234.601,118.68 241.681,117.84 243.721,116.76 	"/>
</g>
<g id="TN">
	
		<polygon fill="#f0ebbc" stroke="#0000FF" stroke-width="0.7087" stroke-linecap="round" stroke-linejoin="round" stroke-miterlimit="10" points="
		234.48,116.76 234.601,117.479 234.601,118.68 226.201,119.76 210,120.6 198.24,120.6 198.24,119.76 198.361,118.68 
		198.361,117.479 198.721,116.76 199.801,114.119 199.921,110.879 201.48,109.68 209.041,109.68 209.16,109.56 210.24,107.88 
		225.601,106.8 247.681,105.239 247.921,106.8 246.48,107.88 244.201,109.56 243.961,109.68 242.521,110.879 238.08,114.119 	"/>
</g>
<g id="VA">
<g id="LWPOLYLINE_36_">
	
		<polygon fill="#f0ebbc" stroke="#0000FF" stroke-width="0.7087" stroke-linecap="round" stroke-linejoin="round" stroke-miterlimit="10" points="
		264.36,82.439 265.081,81.72 266.041,80.76 267.48,81.72 268.081,80.76 270.36,81.72 271.201,82.439 272.28,84.479 270.961,86.52 
		277.681,88.319 277.681,89.04 277.801,92.399 278.041,93.72 278.16,95.04 278.881,95.76 281.641,97.319 282.721,97.92 
		274.201,99.72 247.681,105.239 237.361,105.96 238.08,105.239 244.201,99.72 244.921,99 249.48,99.72 253.32,97.92 254.641,97.319 
		255.24,95.76 255.601,95.04 256.081,93.72 256.44,92.399 257.641,89.04 258.36,88.319 260.16,86.52 262.32,84.479 	"/>
</g>
<g id="LWPOLYLINE_37_">
	
		<polygon fill="#f0ebbc" stroke="#0000FF" stroke-width="0.7087" stroke-linecap="round" stroke-linejoin="round" stroke-miterlimit="10" points="
		281.761,89.279 281.761,88.92 283.681,88.92 283.681,89.279 283.44,90.96 283.32,92.159 282.721,93.6 281.761,95.88 281.041,93.6 
		281.28,92.159 281.641,90.96 	"/>
</g>
</g>
<g id="KY">
	
		<polygon fill="#f0ebbc" stroke="#0000FF" stroke-width="0.7087" stroke-linecap="round" stroke-linejoin="round" stroke-miterlimit="10" points="
		201.721,109.56 202.08,107.88 202.561,105.96 202.681,105.239 202.921,103.92 206.281,105.239 208.801,99.359 213.961,99.119 
		214.32,99 219.721,97.319 221.16,94.319 222.361,92.04 222.48,91.8 226.32,90.84 226.32,90.72 226.08,89.04 228.961,89.04 
		230.4,90.72 238.32,90.72 238.561,90.84 240.121,91.8 240.48,92.04 240.841,94.319 243.48,97.319 244.921,99 244.921,99.119 
		244.681,99.359 238.201,105.239 237.361,105.96 210.24,107.88 209.16,109.56 209.041,109.68 201.48,109.68 	"/>
</g>
<g id="IL">
	
		<polygon fill="#f0ebbc" stroke="#0000FF" stroke-width="0.7087" stroke-linecap="round" stroke-linejoin="round" stroke-miterlimit="10" points="
		208.32,68.64 207.48,66.479 207.24,65.04 207.24,64.68 190.201,65.04 191.521,66.479 193.561,68.64 193.921,69.119 193.921,70.92 
		193.921,71.88 189.841,73.439 190.08,77.399 187.08,80.64 188.281,86.64 192.361,91.8 192.601,92.159 194.551,92.159 
		195.361,93.239 195.361,93.359 194.281,96.84 195.361,97.8 197.16,99.359 199.201,100.92 199.921,103.92 200.641,106.199 
		202.44,106.199 202.921,103.92 206.281,105.239 206.881,103.92 208.08,100.92 208.801,99.359 208.801,97.8 209.16,96.84 
		210.48,93.359 210.48,93.239 210.48,91.8 210.361,86.64 210.361,80.64 210.24,77.399 210.24,73.439 210.121,71.88 210.121,70.92 
		208.681,69.119 	"/>
</g>
<g id="IN">
	
		<polygon fill="#f0ebbc" stroke="#0000FF" stroke-width="0.7087" stroke-linecap="round" stroke-linejoin="round" stroke-miterlimit="10" points="
		221.761,93.239 219.721,97.319 217.921,97.8 213.961,99.119 208.801,99.359 208.801,99.119 208.801,97.8 209.041,97.319 
		210.48,93.239 210.48,91.8 210.48,90.84 210.48,89.04 210.121,71.04 211.561,71.04 211.681,70.92 212.881,69.239 224.521,69.239 
		224.641,70.92 224.641,71.04 226.08,89.04 226.32,90.84 222.48,91.8 	"/>
</g>
<g id="WI">
	
		<polygon fill="#f0ebbc" stroke="#0000FF" stroke-width="0.7087" stroke-linecap="round" stroke-linejoin="round" stroke-miterlimit="10" points="
		191.16,36.119 192.721,37.8 200.761,38.64 202.561,39.6 205.561,41.04 205.561,41.279 205.801,44.76 204.721,48.72 208.32,44.76 
		209.041,43.92 209.761,43.199 210.24,43.92 209.881,44.76 207.721,48.72 207.601,48.84 207.601,48.96 207.121,49.8 206.521,55.8 
		206.281,58.08 207,63.72 207.24,64.68 190.201,65.04 189.601,64.68 188.281,63.72 188.041,58.08 186.961,55.8 179.4,49.8 
		178.32,48.96 178.32,48.84 178.32,48.72 178.32,44.76 178.32,41.279 178.681,41.04 181.32,39.6 181.201,38.64 181.201,37.8 
		181.201,36.119 181.201,36 183.961,34.56 185.281,33.119 188.041,33.119 189.601,34.56 191.041,36 	"/>
</g>
<g id="MI">
<g id="LWPOLYLINE_42_">
	
		<polygon fill="#f0ebbc" stroke="#0000FF" stroke-width="0.7087" stroke-linecap="round" stroke-linejoin="round" stroke-miterlimit="10" points="
		212.881,69.239 224.521,69.239 232.561,68.159 234.24,64.199 234.24,64.08 234.841,62.399 236.881,60.6 236.881,60.119 
		236.881,58.08 236.881,57.84 235.681,54.72 234.961,53.04 234.48,51.6 232.921,50.279 230.881,51.6 228.961,53.04 227.881,54.72 
		227.041,52.199 229.801,48.119 229.801,47.399 229.801,44.159 229.801,42.119 226.801,40.319 225.24,40.319 222.961,39.239 
		221.641,38.64 221.281,38.64 220.08,39.239 219.961,40.319 219.841,42.119 217.44,44.159 214.561,47.399 214.44,48.119 
		214.08,52.199 213.841,54.72 213.48,57.84 213.721,58.08 216.121,60.119 216.121,60.6 216,62.399 216,64.08 216,64.199 
		213.48,68.159 	"/>
</g>
<g id="LWPOLYLINE_43_">
	
		<polygon fill="#f0ebbc" stroke="#0000FF" stroke-width="0.7087" stroke-linecap="round" stroke-linejoin="round" stroke-miterlimit="10" points="
		201,31.199 204.48,31.319 205.32,32.279 205.921,33.119 206.041,33.239 207.24,34.8 211.44,33.72 212.16,33.239 212.281,33.119 
		213.24,32.279 216,33.119 217.08,31.439 217.201,31.319 217.201,31.199 218.041,31.319 218.881,31.439 218.881,33.119 
		221.4,33.239 221.881,33.72 222.721,34.8 223.801,36.119 224.281,36.479 222.961,36.96 220.681,37.8 220.44,37.92 220.201,37.8 
		217.08,36.96 215.761,37.8 214.201,38.64 213,39.359 208.921,40.439 208.921,41.04 208.801,42.119 206.4,44.399 205.801,44.76 
		205.801,44.399 205.681,42.119 205.561,41.04 204.121,40.439 202.201,39.359 200.761,38.64 192.721,37.8 191.881,36.96 
		191.521,36.479 191.16,36.119 191.761,34.8 192.601,33.239 194.521,33.119 196.801,32.279 197.881,31.319 198,31.199 
		199.801,29.52 200.4,29.04 201.361,28.199 203.761,26.88 203.761,28.199 203.761,29.04 203.041,29.52 	"/>
</g>
</g>
<g id="OH">
	
		<polyline fill="#f0ebbc" stroke="#0000FF" stroke-width="0.7087" stroke-linecap="round" stroke-linejoin="round" stroke-miterlimit="10" points="
		233.881,68.159 232.561,68.159 234.24,68.159 232.561,68.159 228,68.76 224.521,69.239 224.521,69.6 224.881,74.04 224.881,74.76 
		225.48,81.84 225.841,85.199 226.08,89.04 228.961,89.04 230.4,90.72 238.32,90.72 238.561,90.84 240.48,92.04 242.16,90.84 
		242.16,90.72 242.761,89.04 243.961,85.199 249.48,81.84 248.761,74.76 250.44,74.04 249.601,69.6 249.601,69.239 249.001,65.64 
		248.761,64.68 244.801,65.64 237.721,69.239 237,69.6 236.521,69.239 236.041,68.76 234.24,68.159 	"/>
</g>
<g id="WV">
	
		<polygon fill="#f0ebbc" stroke="#0000FF" stroke-width="0.7087" stroke-linecap="round" stroke-linejoin="round" stroke-miterlimit="10" points="
		257.641,89.04 257.041,90.84 256.561,92.04 256.081,93.72 255.841,94.319 254.641,97.319 251.041,99 249.48,99.72 244.921,99 
		243.48,97.319 240.841,94.319 240.721,93.72 240.48,92.04 242.16,90.84 242.761,89.04 243.961,85.199 247.32,83.159 249.48,81.84 
		249.24,79.68 248.761,74.76 250.44,74.04 250.561,74.76 251.521,79.68 257.761,79.68 257.761,81.84 257.761,83.159 259.081,81.84 
		259.201,81.72 260.16,80.76 260.4,80.64 260.881,80.04 261.121,79.92 261.841,80.04 264.24,80.64 264.841,80.04 265.201,79.68 
		266.041,78.96 267.601,79.68 268.44,80.04 268.081,80.64 268.081,80.76 267.48,81.72 266.041,80.76 265.081,81.72 264.961,81.84 
		263.641,83.159 261.48,85.199 	"/>
</g>
<g id="MD">
	
		<polygon fill="#f0ebbc" stroke="#0000FF" stroke-width="0.7087" stroke-linecap="round" stroke-linejoin="round" stroke-miterlimit="10" points="
		271.201,82.439 271.32,82.68 272.28,84.479 270.961,86.52 277.681,88.319 276.841,86.52 275.881,84.479 275.041,82.68 
		274.921,82.439 274.681,80.279 275.041,80.04 276.48,79.319 277.681,80.64 278.4,83.52 278.881,85.199 279.961,88.92 
		279.961,89.04 281.761,88.92 283.681,88.92 283.801,85.199 283.801,83.52 280.32,83.52 279.48,80.64 279.001,79.319 278.881,78.96 
		277.801,75.479 261.24,78.96 257.761,79.68 257.761,79.92 257.761,82.68 257.761,83.159 258.24,82.68 261.121,79.92 
		262.681,80.279 264.24,80.64 264.601,80.279 265.081,79.92 265.201,79.68 266.041,78.96 266.881,79.319 268.44,80.04 
		268.081,80.64 268.081,80.76 270.36,81.72 	"/>
</g>
<g id="DE">
	
		<polygon fill="#f0ebbc" stroke="#0000FF" stroke-width="0.7087" stroke-linecap="round" stroke-linejoin="round" stroke-miterlimit="10" points="
		283.801,83.52 280.32,83.52 279.48,80.76 278.16,76.439 277.801,75.479 278.16,74.04 280.32,73.8 280.32,74.04 280.32,75.479 
		280.201,76.439 281.641,80.76 283.801,82.199 	"/>
</g>
<g id="PA">
	
		<polygon fill="#f0ebbc" stroke="#0000FF" stroke-width="0.7087" stroke-linecap="round" stroke-linejoin="round" stroke-miterlimit="10" points="
		254.28,63.359 253.561,63.479 252.841,63.359 252.721,63 252.48,60.239 250.201,63 249.841,63.359 249.721,63.479 248.761,64.68 
		248.881,65.399 249.36,67.92 249.841,70.68 250.44,73.8 250.44,74.04 250.681,75.479 251.521,79.68 257.761,79.68 277.801,75.479 
		278.16,74.04 280.32,73.8 282.601,70.68 279.24,67.92 279.24,65.399 279.721,64.68 280.561,63.479 280.681,63.359 280.921,63 
		278.521,60.239 276.48,57.96 267.121,60.239 255.841,63 	"/>
</g>
<g id="NJ">
	
		<polygon fill="#f0ebbc" stroke="#0000FF" stroke-width="0.7087" stroke-linecap="round" stroke-linejoin="round" stroke-miterlimit="10" points="
		280.201,76.439 280.201,75.96 280.32,73.8 282.601,70.68 279.601,68.159 279.48,68.159 279.24,67.92 279.24,65.399 279.601,64.92 
		280.921,63 285.48,64.92 285.48,65.399 285.48,67.92 285.48,68.159 287.521,68.159 287.641,70.68 287.761,73.8 287.881,75.96 
		287.4,76.439 285.721,78.239 285.48,78.479 285.48,80.88 283.921,80.88 283.681,78.479 283.681,78.239 282.36,78.359 
		282.24,78.239 	"/>
</g>
<g id="NY">
	
		<polygon fill="#f0ebbc" stroke="#0000FF" stroke-width="0.7087" stroke-linecap="round" stroke-linejoin="round" stroke-miterlimit="10" points="
		272.041,37.92 272.641,37.439 276.001,34.439 282.36,33.239 282.721,34.439 283.921,37.439 283.921,37.92 283.801,42.119 
		283.681,43.319 285.601,44.76 286.201,48.479 286.44,50.04 286.561,51.119 286.561,53.159 286.681,55.92 286.801,56.52 
		286.921,57.96 287.761,63 287.16,63.479 285.48,64.92 282.24,63.479 281.041,63 280.921,63 276.48,57.96 267.121,60.239 
		254.28,63.359 253.561,63.479 252.841,63.359 252.48,60.239 254.641,57.96 256.081,56.52 256.081,55.92 256.081,53.159 
		258.24,51.119 258.48,50.88 265.081,51.119 266.761,50.04 269.4,48.479 269.4,44.76 269.4,43.319 269.4,42.119 	"/>
</g>
<g id="CT">
	
		<polygon fill="#f0ebbc" stroke="#0000FF" stroke-width="0.7087" stroke-linecap="round" stroke-linejoin="round" stroke-miterlimit="10" points="
		286.681,55.92 296.4,53.04 296.761,55.92 297.121,58.439 287.761,63 287.041,58.439 	"/>
</g>
<g id="RI">
	
		<polygon fill="#f0ebbc" stroke="#0000FF" stroke-width="0.7087" stroke-linecap="round" stroke-linejoin="round" stroke-miterlimit="10" points="
		299.4,51.6 299.4,51.96 299.4,53.04 301.201,55.439 297.121,58.439 296.761,55.439 296.4,53.04 297.841,51.96 	"/>
</g>
<g id="MA">
	
		<polygon fill="#f0ebbc" stroke="#0000FF" stroke-width="0.7087" stroke-linecap="round" stroke-linejoin="round" stroke-miterlimit="10" points="
		300.001,48.96 300.121,49.199 300.841,50.04 301.561,51.119 303.961,51.479 304.801,51.119 305.761,50.52 305.881,51.119 
		305.881,51.479 305.881,51.6 306.24,53.04 306.36,53.76 301.201,55.439 299.881,53.76 299.4,53.04 299.4,51.6 297.841,51.96 
		296.4,53.04 288.36,55.439 286.681,55.92 286.681,55.439 286.561,53.04 286.561,51.96 286.561,51.6 286.561,51.479 286.561,51.119 
		286.44,50.04 290.881,49.199 291.24,48.96 297.48,46.8 299.521,46.08 300.48,46.8 	"/>
</g>
<g id="VT">
	
		<polygon fill="#f0ebbc" stroke="#0000FF" stroke-width="0.7087" stroke-linecap="round" stroke-linejoin="round" stroke-miterlimit="10" points="
		291.001,44.76 291.121,43.319 291.24,37.439 292.561,34.68 292.32,33.239 292.081,31.08 282.36,33.239 282.841,34.68 
		283.921,37.439 283.681,43.319 285.601,44.76 286.32,49.199 286.44,50.04 290.881,49.199 	"/>
</g>
<g id="NH">
	
		<polygon fill="#f0ebbc" stroke="#0000FF" stroke-width="0.7087" stroke-linecap="round" stroke-linejoin="round" stroke-miterlimit="10" points="
		291.121,43.439 291.121,42.119 291.24,38.88 291.24,37.439 292.561,34.68 292.081,31.08 292.561,29.52 293.881,29.52 294.36,31.08 
		295.32,34.68 296.16,37.439 296.641,38.88 298.561,42.119 299.521,43.439 299.521,46.08 290.881,49.199 291.001,46.08 	"/>
</g>
<g id="ME">
	
		<polygon fill="#f0ebbc" stroke="#0000FF" stroke-width="0.7087" stroke-linecap="round" stroke-linejoin="round" stroke-miterlimit="10" points="
		296.641,38.88 295.801,36 294.961,33.239 293.881,29.52 295.081,27 296.16,24.84 296.521,24 296.521,21.6 296.641,14.64 
		296.641,12.72 299.521,10.68 305.521,10.319 305.641,10.68 306.36,12.72 306.601,14.64 310.081,21.6 314.041,24 315.48,24.84 
		315.48,27 311.641,29.52 306.24,33.239 306.24,36 301.201,38.88 301.081,39 301.081,42.119 300.961,42.119 299.521,43.439 
		298.561,42.119 296.641,39 	"/>
</g>
</svg>
